<svg xmlns="http://www.w3.org/2000/svg" width="30" height="30" fill="none"><circle cx="15" cy="15" r="15" fill="#28B3BB"/><path fill="#F8F8F8" d="M18.906 17.461h-.76l-.269-.26a6.223 6.223 0 0 0 1.51-4.067 6.25 6.25 0 1 0-6.25 6.25 6.222 6.222 0 0 0 4.067-1.51l.26.27v.76L22.27 23.7l1.433-1.432-4.798-4.808Zm-5.77 0a4.321 4.321 0 0 1-4.326-4.327 4.321 4.321 0 0 1 4.327-4.327 4.321 4.321 0 0 1 4.327 4.327 4.321 4.321 0 0 1-4.327 4.327Zm.482-6.73h-.962v1.922h-1.923v.962h1.923v1.923h.961v-1.923h1.924v-.962h-1.924V10.73Z"/></svg>