<svg width="23" height="27" viewBox="0 0 23 27" fill="none" xmlns="http://www.w3.org/2000/svg">
<path d="M6.45597 2.81392H7.9375C7.89276 1.18324 6.45099 0 4.38281 0C2.33949 0 0.773438 1.16832 0.773438 2.9233C0.773438 4.3402 1.78764 5.17045 3.4233 5.61293L4.62642 5.94105C5.7152 6.2294 6.5554 6.58736 6.5554 7.49219C6.5554 8.48651 5.60582 9.14276 4.2983 9.14276C3.11506 9.14276 2.13068 8.61577 2.04119 7.5071H0.5C0.599432 9.35156 2.02628 10.4901 4.30824 10.4901C6.69957 10.4901 8.0767 9.23224 8.0767 7.5071C8.0767 5.67259 6.44105 4.96165 5.14844 4.64347L4.15412 4.38494C3.35866 4.18111 2.29972 3.80824 2.30469 2.83381C2.30469 1.96875 3.09517 1.32742 4.34801 1.32742C5.51634 1.32742 6.34659 1.87429 6.45597 2.81392Z" fill="white"/>
<path d="M22.9568 5.23011C22.9568 1.97372 21.0079 0 18.373 0C15.7281 0 13.7842 1.97372 13.7842 5.23011C13.7842 8.48153 15.7281 10.4602 18.373 10.4602C21.0079 10.4602 22.9568 8.48651 22.9568 5.23011ZM21.4355 5.23011C21.4355 7.71094 20.123 9.05824 18.373 9.05824C16.618 9.05824 15.3105 7.71094 15.3105 5.23011C15.3105 2.74929 16.618 1.40199 18.373 1.40199C20.123 1.40199 21.4355 2.74929 21.4355 5.23011Z" fill="white"/>
<path d="M0.78418 26.6721H7.22736V25.3496H2.3204V22.2324H6.83461V20.915H2.3204V17.8127H7.1677V16.4902H0.78418V26.6721Z" fill="#8DA2FB"/>
<path d="M14.7842 26.6721H16.3204V23.0925H18.4085C20.77 23.0925 21.9383 21.6657 21.9383 19.7864C21.9383 17.9121 20.7799 16.4902 18.4134 16.4902H14.7842V26.6721ZM16.3204 21.79V17.8077H18.2494C19.7707 17.8077 20.3921 18.633 20.3921 19.7864C20.3921 20.9398 19.7707 21.79 18.2693 21.79H16.3204Z" fill="#8DA2FB"/>
</svg>
