<svg width="1306" height="290" viewBox="0 0 1306 290" fill="none" xmlns="http://www.w3.org/2000/svg">
<path d="M335.8 229.6V76.5H397.1C408.4 76.5 417.8 78.2 425.3 81.5C432.8 84.8 438.5 89.5 442.3 95.4C446.1 101.3 448 108.1 448 115.8C448 121.8 446.8 127 444.4 131.5C442 136 438.7 139.7 434.6 142.6C430.4 145.5 425.7 147.5 420.4 148.7V150.2C426.2 150.4 431.7 152.1 436.8 155.1C441.9 158.1 446.1 162.4 449.2 167.8C452.4 173.3 454 179.7 454 187.3C454 195.4 452 202.7 448 209C444 215.4 438.1 220.4 430.2 224.1C422.4 227.8 412.7 229.6 401.3 229.6H335.8ZM368.2 140.6H392.2C396.6 140.6 400.6 139.8 404 138.2C407.5 136.6 410.2 134.4 412.2 131.5C414.2 128.6 415.2 125.1 415.2 121.1C415.2 115.6 413.2 111.1 409.3 107.7C405.4 104.3 399.8 102.6 392.7 102.6H368.1V140.6H368.2ZM368.2 203.2H394.6C403.6 203.2 410.2 201.5 414.3 198C418.4 194.5 420.5 189.9 420.5 184.1C420.5 179.9 419.5 176.1 417.4 172.9C415.4 169.7 412.5 167.1 408.7 165.3C404.9 163.5 400.5 162.5 395.3 162.5H368.2V203.2Z" fill="#28B3BB"/>
<path d="M678.699 153.1C678.699 169.8 675.499 184 669.199 195.7C662.899 207.4 654.299 216.3 643.499 222.5C632.699 228.7 620.499 231.7 606.999 231.7C593.399 231.7 581.199 228.6 570.399 222.4C559.599 216.2 550.999 207.3 544.799 195.6C538.499 183.9 535.399 169.7 535.399 153.1C535.399 136.4 538.499 122.2 544.799 110.5C551.099 98.8 559.599 89.9 570.399 83.7C581.199 77.5 593.399 74.5 606.999 74.5C620.499 74.5 632.699 77.6 643.499 83.7C654.299 89.9 662.899 98.8 669.199 110.5C675.599 122.2 678.699 136.4 678.699 153.1ZM645.899 153.1C645.899 142.3 644.299 133.2 641.099 125.7C637.899 118.3 633.399 112.6 627.499 108.8C621.699 105 614.799 103 606.999 103C599.199 103 592.299 104.9 586.499 108.8C580.699 112.6 576.099 118.3 572.899 125.7C569.699 133.1 568.099 142.2 568.099 153.1C568.099 163.9 569.699 173 572.899 180.5C576.099 187.9 580.599 193.6 586.499 197.4C592.299 201.2 599.199 203.2 606.999 203.2C614.799 203.2 621.699 201.3 627.499 197.4C633.299 193.6 637.899 187.9 641.099 180.5C644.299 173 645.899 163.9 645.899 153.1Z" fill="#28B3BB"/>
<path d="M765.8 229.6V76.5H798.2V202.9H863.8V229.6H765.8Z" fill="#28B3BB"/>
<path d="M1002.7 229.6H948.399V76.5H1003.1C1018.5 76.5 1031.8 79.6 1042.9 85.7C1054 91.8 1062.6 100.6 1068.6 112C1074.6 123.4 1077.6 137.1 1077.6 153C1077.6 168.9 1074.6 182.7 1068.6 194.1C1062.6 205.6 1054 214.4 1042.8 220.5C1031.6 226.6 1018.2 229.6 1002.7 229.6ZM980.799 201.9H1001.4C1011 201.9 1019 200.2 1025.6 196.8C1032.2 193.4 1037.1 188.1 1040.4 180.9C1043.7 173.7 1045.4 164.4 1045.4 153C1045.4 141.7 1043.7 132.4 1040.4 125.3C1037.1 118.1 1032.2 112.8 1025.6 109.5C1019.1 106.1 1011 104.4 1001.5 104.4H980.799V201.9Z" fill="#28B3BB"/>
<path d="M1305.3 153.1C1305.3 169.8 1302.1 184 1295.8 195.7C1289.5 207.4 1280.9 216.3 1270.1 222.5C1259.3 228.7 1247.1 231.7 1233.6 231.7C1220 231.7 1207.8 228.6 1197 222.4C1186.2 216.2 1177.6 207.3 1171.4 195.6C1165.1 183.9 1162 169.7 1162 153.1C1162 136.4 1165.1 122.2 1171.4 110.5C1177.7 98.8 1186.2 89.9 1197 83.7C1207.8 77.5 1220 74.5 1233.6 74.5C1247.1 74.5 1259.3 77.6 1270.1 83.7C1280.9 89.9 1289.5 98.8 1295.8 110.5C1302.2 122.2 1305.3 136.4 1305.3 153.1ZM1272.5 153.1C1272.5 142.3 1270.9 133.2 1267.7 125.7C1264.5 118.3 1260 112.6 1254.1 108.8C1248.3 105 1241.4 103 1233.6 103C1225.8 103 1218.9 104.9 1213.1 108.8C1207.3 112.6 1202.7 118.3 1199.5 125.7C1196.3 133.1 1194.7 142.2 1194.7 153.1C1194.7 163.9 1196.3 173 1199.5 180.5C1202.7 187.9 1207.2 193.6 1213.1 197.4C1218.9 201.2 1225.8 203.2 1233.6 203.2C1241.4 203.2 1248.3 201.3 1254.1 197.4C1259.9 193.6 1264.5 187.9 1267.7 180.5C1270.9 173 1272.5 163.9 1272.5 153.1Z" fill="#28B3BB"/>
<path d="M113.2 170.7C126.1 97.7 165.1 66.6 165.1 66.6C113.9 100.3 103 173.5 103 173.5C75.4 91.5 140.6 58.3 165.7 19.4C156.3 17.4 146.6 16.3 136.7 16.3C61.2 16.3 0 77.5 0 153C0 227.7 59.9 288.4 134.2 289.7C77.8 245.4 113.2 170.7 113.2 170.7ZM93.5 211.1C93.5 211.1 83 164.6 48.6 145.4C48.6 145.4 75 163.5 86.8 209.8C72.7 206.3 40.2 194.8 30.6 160.6C24.8 140.2 28.8 119.4 39.7 103C48.5 134 109.7 148.5 93.5 211.1Z" fill="#28B3BB"/>
<path d="M206.9 35.8C199.5 13.9 174.2 0 174.2 0C193 24.1 201.5 56 194.8 88.2C188.6 118.4 170.5 138.5 152 151.5C129.9 167.1 115.4 191.3 113.3 218.2C110.3 255.9 128.6 281.7 135.4 289.9C135.8 289.9 136.2 289.9 136.7 289.9C212.2 289.9 273.4 228.7 273.4 153.2C273.4 103.3 246.7 59.7 206.9 35.8ZM213.1 194.2C198.8 242.2 152.7 257.8 132.7 262.4C150.2 197.4 187.9 172.4 187.9 172.4C138.9 198.8 123.2 264.2 123.2 264.2C101.8 175.4 188.4 156.3 201.5 112.8C216.5 136.1 221.7 165.6 213.1 194.2Z" fill="#EB8B76"/>
</svg>
