<svg width="160" height="135" viewBox="0 0 160 135" fill="none" xmlns="http://www.w3.org/2000/svg">
<path fill-rule="evenodd" clip-rule="evenodd" d="M91.5998 0C91.5998 0 99.4758 4.356 101.768 11.12L101.788 11.124C109.758 15.8848 115.945 23.1297 119.399 31.7466C122.854 40.3634 123.385 49.8758 120.91 58.8235C118.436 67.7713 113.094 75.6597 105.704 81.278C98.3133 86.8962 89.2833 89.9336 79.9998 89.924H79.5998C74.5407 83.6727 72.0776 75.7162 72.7198 67.7C73.3678 59.356 77.8798 51.836 84.7198 47.012C90.4598 42.964 96.0718 36.744 97.9998 27.364C98.9817 22.6116 98.9178 17.7025 97.8127 12.9773C96.7075 8.25213 94.5875 3.82394 91.5998 0ZM78.7518 81.424C84.9678 79.996 99.2438 75.148 103.696 60.272C104.961 56.051 105.294 51.6054 104.671 47.243C104.048 42.8807 102.484 38.7059 100.088 35.008C98.6661 39.7587 94.4156 43.5712 89.7927 47.7176C81.2787 55.3541 71.5019 64.1234 75.8078 81.972C75.8078 81.972 80.6878 61.688 95.8878 53.496C95.8878 53.496 84.1878 61.252 78.7518 81.424ZM72.6998 52.976C76.6998 30.324 88.7918 20.688 88.7918 20.688C72.9238 31.14 69.5238 53.86 69.5238 53.86C63.0776 34.7052 72.9507 24.1418 81.5459 14.9456C84.3698 11.9242 87.0558 9.05041 88.9798 6.068C83.2045 4.83245 77.2349 4.81704 71.4533 6.02276C65.6718 7.22848 60.2059 9.62874 55.4059 13.0697C50.6059 16.5107 46.5778 20.9165 43.5796 26.0048C40.5813 31.0931 38.6792 36.7516 37.995 42.6178C37.3108 48.4839 37.8596 54.4283 39.6064 60.07C41.3531 65.7117 44.2592 70.9263 48.1385 75.3796C52.0177 79.8329 56.7845 83.4266 62.1334 85.9305C67.4822 88.4344 73.2952 89.7933 79.1998 89.92C61.7278 76.128 72.6998 52.976 72.6998 52.976ZM66.6118 65.512C66.6118 65.512 63.3678 51.112 52.6998 45.132C52.6998 45.132 60.9038 50.732 64.5358 65.092C60.1358 64.012 50.0918 60.428 47.0998 49.848C46.2475 46.8449 46.0586 43.6925 46.5463 40.6091C47.0339 37.5258 48.1864 34.5855 49.9238 31.992C50.8796 35.3719 53.8473 38.1177 57.075 41.104C63.0188 46.6034 69.8444 52.9186 66.6118 65.512ZM56.5759 121.588C56.5759 124.34 56.0545 126.684 55.0119 128.62C54.0484 130.462 52.5769 131.989 50.7719 133.02C48.9176 134.022 46.8433 134.546 44.7359 134.546C42.6284 134.546 40.5541 134.022 38.6999 133.02C36.8938 131.978 35.4249 130.44 34.4679 128.588C33.4332 126.655 32.9145 124.316 32.9119 121.572C32.9092 118.828 33.4279 116.484 34.4679 114.54C35.4251 112.69 36.8941 111.154 38.6999 110.116C40.5545 109.116 42.6287 108.592 44.7359 108.592C46.8431 108.592 48.9172 109.116 50.7719 110.116C52.5798 111.154 54.0516 112.69 55.0119 114.54C56.0572 116.484 56.5785 118.833 56.5759 121.588ZM51.1599 121.588C51.2017 120.044 50.9295 118.508 50.3599 117.072C49.908 115.937 49.1282 114.962 48.1199 114.272C47.1024 113.649 45.9327 113.32 44.7398 113.32C43.547 113.32 42.3774 113.649 41.3599 114.272C40.3516 114.962 39.5717 115.937 39.1199 117.072C38.0588 119.988 38.0588 123.184 39.1199 126.1C39.5706 127.236 40.3507 128.211 41.3599 128.9C42.3774 129.523 43.547 129.852 44.7398 129.852C45.9327 129.852 47.1024 129.523 48.1199 128.9C49.129 128.211 49.9091 127.236 50.3599 126.1C50.9295 124.666 51.2017 123.131 51.1599 121.588ZM0 134.22V108.956H10.116C11.7056 108.907 13.2881 109.188 14.764 109.78C15.904 110.247 16.8789 111.044 17.564 112.068C18.1998 113.073 18.5267 114.243 18.504 115.432C18.5223 116.333 18.319 117.224 17.912 118.028C17.5277 118.759 16.9701 119.386 16.288 119.852C15.578 120.337 14.7806 120.679 13.94 120.86V121.104C14.9157 121.148 15.8644 121.439 16.6969 121.95C17.5295 122.46 18.2187 123.174 18.7 124.024C19.2489 125 19.5252 126.105 19.5 127.224C19.5241 128.495 19.1781 129.746 18.504 130.824C17.7889 131.919 16.7719 132.783 15.576 133.312C14.07 133.962 12.4396 134.273 10.8 134.224L0 134.22ZM5.33999 119.528H9.3C9.973 119.535 10.6398 119.399 11.256 119.128C11.8014 118.89 12.2706 118.507 12.612 118.02C12.9549 117.516 13.1299 116.917 13.112 116.308C13.1253 115.891 13.0453 115.476 12.8778 115.094C12.7103 114.712 12.4596 114.373 12.144 114.1C11.5013 113.54 10.5867 113.26 9.4 113.26H5.31999L5.33999 119.528ZM5.33999 129.852H9.69599C11.184 129.852 12.2693 129.567 12.952 128.996C13.2868 128.719 13.5534 128.368 13.7309 127.971C13.9085 127.575 13.9924 127.142 13.976 126.708C13.9889 126.055 13.814 125.412 13.472 124.856C13.1198 124.309 12.6208 123.872 12.032 123.596C11.332 123.279 10.568 123.128 9.8 123.156H5.31999L5.33999 129.852ZM70.9438 108.956V134.22L87.1158 134.216V129.816H76.2839V108.956H70.9438ZM110.032 134.22H101.076V108.956H110.108C112.388 108.896 114.647 109.414 116.672 110.464C118.485 111.454 119.96 112.964 120.908 114.8C121.886 116.924 122.392 119.235 122.392 121.574C122.392 123.913 121.886 126.224 120.908 128.348C119.959 130.194 118.476 131.71 116.652 132.7C114.609 133.758 112.332 134.281 110.032 134.22ZM106.432 129.644H109.824C111.206 129.69 112.579 129.399 113.824 128.796C114.916 128.226 115.779 127.298 116.268 126.168C117.365 123.2 117.365 119.937 116.268 116.968C115.778 115.845 114.918 114.923 113.832 114.356C112.586 113.757 111.214 113.469 109.832 113.516H106.428L106.432 129.644ZM158.44 128.62C159.48 126.684 160 124.34 160 121.588C160 118.833 159.48 116.484 158.44 114.54C157.478 112.689 156.005 111.154 154.196 110.116C152.341 109.116 150.267 108.592 148.16 108.592C146.053 108.592 143.979 109.116 142.124 110.116C140.318 111.154 138.849 112.69 137.892 114.54C136.857 116.484 136.34 118.828 136.34 121.572C136.34 124.316 136.857 126.655 137.892 128.588C138.849 130.44 140.318 131.978 142.124 133.02C143.978 134.022 146.053 134.546 148.16 134.546C150.268 134.546 152.342 134.022 154.196 133.02C156.002 131.989 157.475 130.462 158.44 128.62ZM153.784 117.072C154.356 118.507 154.628 120.044 154.584 121.588H154.564C154.614 123.129 154.349 124.665 153.784 126.1C153.333 127.236 152.553 128.211 151.544 128.9C150.527 129.523 149.357 129.852 148.164 129.852C146.971 129.852 145.802 129.523 144.784 128.9C143.776 128.21 142.996 127.235 142.544 126.1C141.488 123.183 141.488 119.989 142.544 117.072C142.997 115.938 143.777 114.963 144.784 114.272C145.802 113.649 146.971 113.32 148.164 113.32C149.357 113.32 150.527 113.649 151.544 114.272C152.552 114.962 153.332 115.937 153.784 117.072Z" fill="white"/>
</svg>
