<svg width="1440" height="760" viewBox="0 0 1440 760" fill="none" xmlns="http://www.w3.org/2000/svg">
<path d="M1584.4 394.714C1510.46 345.81 1509.9 247.544 1528.27 164.12C1534.44 136.184 1541.84 106.422 1530.04 81.0711C1515.53 50.0941 1475.71 34.7287 1437 30.9928C1366.43 24.1698 1290.23 49.0321 1238.61 95.7251C1194.01 136.072 1168.31 189.979 1122.51 229.286C1045.86 295.073 930.21 306.349 827.525 299.865C754.873 295.288 674.338 285.843 613.053 324.902C569.933 352.394 546.968 398.811 539.377 443.839C535.714 465.562 534.806 488.336 522.342 507.963C514.869 519.639 503.894 529.351 492.285 538.122C386.296 618.223 229.769 628.607 128.559 713.355C60.2057 770.559 28.2224 854.35 24.7491 934.229C21.2758 1014.11 43.2486 1091.47 68.0497 1166.63C85.6239 1220.07 107.275 1276.39 158.286 1308.28C212.247 1342.01 289.929 1340.17 354.297 1315.11C418.664 1290.06 471.412 1244.9 515.573 1196.2C570.752 1135.33 618.428 1064.8 695.269 1026.47C747.626 1000.4 807.547 992.476 865.28 980.581C961.769 960.595 1055.17 928.109 1147.82 894.964C1236.5 863.223 1325.62 830.411 1405.91 783.378C1462.73 750.159 1503.7 705.264 1555.92 668.07C1589.93 643.788 1630.06 629.41 1661.07 601.553C1699.25 567.254 1729.48 516.631 1706.35 472.008C1684.35 429.541 1623.65 420.671 1584.4 394.714Z" fill="#E5E7EB"/>
</svg>
