<svg className="inline-block" width="19" height="18" viewBox="0 0 19 18" fill="none" xmlns="http://www.w3.org/2000/svg">
                <path fill-rule="evenodd" clip-rule="evenodd" d="M0.5 1.5C0.5 0.671575 1.17158 0 2 0H17C17.8284 0 18.5 0.671575 18.5 1.5V16.5C18.5 17.3284 17.8284 18 17 18H2C1.17158 18 0.5 17.3284 0.5 16.5V1.5ZM7 3H5.5C4.9477 3 4.5 3.4477 4.5 4V15C4.5 15.5523 4.9477 16 5.5 16H13.5C14.0523 16 14.5 15.5523 14.5 15V4C14.5 3.4477 14.0523 3 13.5 3H12C12 2.4477 11.5523 2 11 2H8C7.4477 2 7 2.4477 7 3ZM8.5319 14.3245L9.7786 11H8.0001C7.724 11 7.5001 10.7761 7.5001 10.5C7.5001 10.2239 7.724 10 8.0001 10H10.4906C10.4969 9.9999 10.5033 9.9999 10.5097 10H10.9904C10.9968 9.9999 11.0032 9.9999 11.0096 10H13.1507C13.4268 10 13.6507 10.2239 13.6507 10.5C13.6507 10.7761 13.4268 11 13.1507 11H11.7215L12.9683 14.3245C13.0652 14.583 12.9342 14.8713 12.6756 14.9682C12.4171 15.0652 12.1288 14.9342 12.0319 14.6756L11.4027 12.9978H10.0974L9.46825 14.6756C9.37125 14.9342 9.08305 15.0652 8.8245 14.9682C8.56595 14.8713 8.43495 14.583 8.5319 14.3245ZM6 6.62H13V5.62H6V6.62ZM8.5 8.7H6V7.7H8.5V8.7ZM10.75 9.5C11.3023 9.5 11.75 9.0523 11.75 8.5C11.75 7.9477 11.3023 7.5 10.75 7.5C10.1977 7.5 9.75 7.9477 9.75 8.5C9.75 9.0523 10.1977 9.5 10.75 9.5ZM8 3H11V4H8V3Z" fill="#364152" />
</svg>