<svg className="inline-block" width="19" height="18" viewBox="0 0 19 18" fill="none" xmlns="http://www.w3.org/2000/svg">
                <path fill-rule="evenodd" clip-rule="evenodd" d="M0.5 1.5C0.5 0.671575 1.17158 0 2 0H17C17.8284 0 18.5 0.671575 18.5 1.5V16.5C18.5 17.3284 17.8284 18 17 18H2C1.17158 18 0.5 17.3284 0.5 16.5V1.5ZM11.75 4.25C11.75 5.49265 10.7427 6.5 9.5 6.5C8.25735 6.5 7.25 5.49265 7.25 4.25C7.25 3.00735 8.25735 2 9.5 2C10.7427 2 11.75 3.00735 11.75 4.25ZM4 8C4 7.72385 4.22385 7.5 4.5 7.5H14.5C14.7761 7.5 15 7.72385 15 8V15.5C15 15.7761 14.7761 16 14.5 16H12C12 15.7014 11.8637 15.4302 11.7149 15.2219C11.5595 15.0043 11.3519 14.801 11.1249 14.6276C10.8106 14.3876 10.4127 14.1706 10 14.066V12.5732H10.7C11.1954 12.5732 11.8186 12.7711 12.3559 12.9974C12.6164 13.1072 12.8421 13.2172 13.0023 13.2997C13.0823 13.3409 13.1455 13.3749 13.188 13.3983C13.2093 13.41 13.2254 13.419 13.2358 13.4249L13.247 13.4313L13.2493 13.4326C13.2493 13.4326 13.2494 13.4326 13.5 13C13.7506 12.5674 13.7506 12.5673 13.7505 12.5673L13.7498 12.5668L13.7484 12.566L13.7437 12.5634L13.7278 12.5543C13.7141 12.5466 13.6946 12.5357 13.6698 12.522C13.6201 12.4948 13.549 12.4564 13.4601 12.4107C13.2829 12.3194 13.0335 12.1977 12.7441 12.0758C12.1814 11.8388 11.4045 11.5732 10.7 11.5732H10V10.5H10.4C10.7744 10.5 11.2423 10.6073 11.6425 10.7285C11.837 10.7875 12.0054 10.8465 12.1248 10.8907C12.1843 10.9128 12.2313 10.931 12.2628 10.9434C12.2746 10.9481 12.2842 10.952 12.2914 10.955C12.2939 10.9559 12.2961 10.9568 12.298 10.9576L12.3062 10.9609L12.3078 10.9616C12.3078 10.9616 12.3077 10.9615 12.5 10.5C12.6923 10.0385 12.6923 10.0384 12.6922 10.0384L12.6904 10.0377L12.6868 10.0362L12.6746 10.0312C12.6642 10.027 12.6494 10.021 12.6306 10.0135C12.593 9.9987 12.5391 9.97785 12.4721 9.953C12.3383 9.90345 12.1504 9.83755 11.9325 9.7715C11.5077 9.64275 10.9255 9.5 10.4 9.5H10V8.5H9V9.5H8.45C7.8498 9.5 7.30385 9.642 6.9157 9.7782C6.71975 9.84695 6.55925 9.91595 6.44615 9.9685C6.38955 9.99485 6.3445 10.0173 6.31255 10.0336C6.2966 10.0418 6.28385 10.0485 6.2746 10.0534L6.26325 10.0596L6.25955 10.0616L6.2582 10.0624L6.25765 10.0626C6.25755 10.0627 6.2572 10.0629 6.5 10.5C6.7428 10.9371 6.7427 10.9372 6.7426 10.9372L6.74615 10.9353C6.75055 10.933 6.7582 10.9289 6.7689 10.9234C6.79025 10.9124 6.82375 10.8958 6.8679 10.8752C6.9564 10.8341 7.0865 10.778 7.2468 10.7218C7.57115 10.608 8.0002 10.5 8.45 10.5H9V11.5732H8.1C7.29525 11.5732 6.56735 11.8377 6.0558 12.0872C5.797 12.2134 5.5857 12.3398 5.4379 12.4353C5.3638 12.4832 5.3052 12.5237 5.26405 12.5531C5.24345 12.5677 5.2272 12.5796 5.2155 12.5883L5.20145 12.5989L5.197 12.6023L5.1955 12.6034L5.19485 12.6039C5.19475 12.604 5.1944 12.6042 5.5 13C5.8056 13.3957 5.8055 13.3958 5.8054 13.3959L5.8121 13.3909C5.8187 13.386 5.8296 13.378 5.84455 13.3673C5.8745 13.346 5.92055 13.314 5.98085 13.275C6.1018 13.1969 6.278 13.0914 6.4942 12.986C6.93265 12.7722 7.50475 12.5732 8.1 12.5732H9V14.0822C8.58535 14.195 8.18465 14.4073 7.86335 14.6492C7.639 14.8181 7.43385 15.0157 7.28025 15.2299C7.1319 15.4367 7 15.7035 7 16H4.5C4.22385 16 4 15.7761 4 15.5V8ZM10.9852 15.9495C10.9978 15.9809 10.9997 15.9972 11 16H8C8.00005 15.9988 8.00095 15.983 8.0139 15.9504C8.0278 15.9154 8.05255 15.8689 8.0928 15.8127C8.17425 15.6993 8.30115 15.5712 8.4648 15.448C8.7939 15.2002 9.1948 15.0281 9.5169 15.0002C9.7937 15.0065 10.1797 15.1641 10.518 15.4224C10.6838 15.549 10.8155 15.6832 10.9011 15.8031C10.9436 15.8625 10.9701 15.912 10.9852 15.9495Z" fill="#364152" />
</svg>