<svg className="inline-block" width="19" height="18" viewBox="0 0 19 18" fill="none" xmlns="http://www.w3.org/2000/svg">
            <path fill-rule="evenodd" clip-rule="evenodd" d="M2 0C1.17158 0 0.5 0.671575 0.5 1.5V16.5C0.5 17.3284 1.17158 18 2 18H17C17.8284 18 18.5 17.3284 18.5 16.5V1.5C18.5 0.671575 17.8284 0 17 0H2ZM7.9 5L11.6 5.0001V5.50005C11.6 5.64275 11.7113 5.86065 11.9246 6.10185C12.0197 6.20935 12.1163 6.30055 12.1896 6.3651C12.226 6.39705 12.2557 6.4217 12.2755 6.43775C12.2854 6.44575 12.2928 6.45155 12.2972 6.45495L12.3012 6.45805L12.5 6.60795V7.5H11.5V7.0901C11.4085 7.008 11.2926 6.89675 11.1755 6.76425C11.0165 6.58455 10.8117 6.31795 10.6942 6L8.77235 6.00005C8.7465 6.05495 8.71945 6.10535 8.69405 6.15C8.5917 6.33005 8.46165 6.50825 8.34125 6.6596C8.21925 6.8129 8.0985 6.94935 8.0089 7.0469L8 7.0566V12.75C8 13.7165 8.7835 14.5 9.75 14.5C10.4481 14.5 11.0507 14.0913 11.3316 13.5H12.3965C12.07 14.6543 11.0088 15.5 9.75 15.5C8.2312 15.5 7 14.2688 7 12.75V6.65085L7.14535 6.50475L7.1467 6.50335L7.1527 6.4972C7.1583 6.4915 7.1669 6.4827 7.17805 6.47105C7.20045 6.44775 7.233 6.4134 7.27235 6.37055C7.3515 6.28435 7.45575 6.16635 7.55875 6.0369C7.6633 5.9055 7.7583 5.77265 7.8247 5.65585C7.8762 5.5652 7.8925 5.5151 7.89765 5.4993C7.89885 5.4955 7.89945 5.4937 7.89975 5.49375C7.8998 5.49375 7.8997 5.4936 7.89975 5.49375C7.89975 5.49385 7.89995 5.4943 7.89995 5.4945L7.9 5.4966V5ZM13.5 11.0455C13.5 11.8488 12.8285 12.5 12 12.5C11.1715 12.5 10.5 11.8488 10.5 11.0455C10.5 9.77275 12 8.5 12 8.5C12 8.5 13.5 9.77275 13.5 11.0455ZM12 2H7.5V4H12V2Z" fill="#364152" />
</svg>