<svg width="77" height="31" viewBox="0 0 77 31" fill="none" xmlns="http://www.w3.org/2000/svg">
<rect x="0.705882" y="1.35237" width="74.8235" height="28.2353" rx="14.1176" fill="#F7FAFC"/>
<path d="M27.7942 15.4707C29.1742 15.4707 30.2842 14.3507 30.2842 12.9707C30.2842 11.5907 29.1742 10.4707 27.7942 10.4707C26.4142 10.4707 25.2942 11.5907 25.2942 12.9707C25.2942 14.3507 26.4142 15.4707 27.7942 15.4707ZM20.2942 14.4707C21.9542 14.4707 23.2842 13.1307 23.2842 11.4707C23.2842 9.8107 21.9542 8.4707 20.2942 8.4707C18.6342 8.4707 17.2942 9.8107 17.2942 11.4707C17.2942 13.1307 18.6342 14.4707 20.2942 14.4707ZM27.7942 17.4707C25.9642 17.4707 22.2942 18.3907 22.2942 20.2207V21.4707C22.2942 22.0207 22.7442 22.4707 23.2942 22.4707H32.2942C32.8442 22.4707 33.2942 22.0207 33.2942 21.4707V20.2207C33.2942 18.3907 29.6242 17.4707 27.7942 17.4707ZM20.2942 16.4707C17.9642 16.4707 13.2942 17.6407 13.2942 19.9707V21.4707C13.2942 22.0207 13.7442 22.4707 14.2942 22.4707H20.2942V20.2207C20.2942 19.3707 20.6242 17.8807 22.6642 16.7507C21.7942 16.5707 20.9542 16.4707 20.2942 16.4707Z" fill="#68D391"/>
<line x1="38.3294" y1="7.21176" x2="38.3294" y2="23.7294" stroke="#CBD5E0" stroke-width="0.423529" stroke-linecap="round"/>
<path d="M57.9412 13.9707V10.4707C57.9412 9.9207 57.4912 9.4707 56.9412 9.4707H44.9412C44.3912 9.4707 43.9412 9.9207 43.9412 10.4707V20.4707C43.9412 21.0207 44.3912 21.4707 44.9412 21.4707H56.9412C57.4912 21.4707 57.9412 21.0207 57.9412 20.4707V16.9707L60.2312 19.2607C60.8612 19.8907 61.9412 19.4407 61.9412 18.5507V12.3807C61.9412 11.4907 60.8612 11.0407 60.2312 11.6707L57.9412 13.9707Z" fill="#EDF2F7"/>
<rect x="0.705882" y="1.35237" width="74.8235" height="28.2353" rx="14.1176" stroke="#EDF2F7" stroke-width="1.41176"/>
</svg>
