<svg width="200" height="255" viewBox="0 0 200 255" fill="none" xmlns="http://www.w3.org/2000/svg">
                            <path d="M3.00028 171.398C10.6163 189.983 23.0343 193.852 31.7651 189.983C48.6502 182.502 92.5118 174.143 137.559 193.791C197.222 219.814 209.916 180.552 190.875 140.838C171.834 101.123 165.38 60.9609 187.331 38.8338C209.282 16.7066 180.557 -17.9082 129.544 18.1234C96.5774 41.4084 72.3839 36.2235 59.392 29.6409C47.1476 23.4371 33.5304 16.9513 20.7723 22.0154C5.2918 28.1604 -0.807998 41.4831 22.7449 71.2461C56.1213 113.423 -14.072 129.741 3.00028 171.398Z" fill="#65CFD3" fillOpacity="0.25" />
                            <path d="M34.0103 80.8633H152.538V172.019C152.538 172.204 152.465 172.382 152.333 172.514C152.202 172.645 152.024 172.719 151.838 172.719H34.7103C34.5246 172.719 34.3465 172.645 34.2153 172.514C34.084 172.382 34.0103 172.204 34.0103 172.019V80.8633Z" fill="#2FC1B0" />
                            <path d="M122.804 45.1426H67.6905L34.0103 80.864H152.538L122.804 45.1426Z" fill="#19AFAF" />
                            <path d="M45.2368 30.8535L67.6902 45.1422L34.01 80.8636L8.49463 61.4719L45.2368 30.8535Z" fill="#27BEC2" />
                            <path d="M145.257 30.8535L122.803 45.1422L152.538 80.8636L181.999 61.4719L145.257 30.8535Z" fill="#27BEC2" />
                            <path d="M82.1698 31.5854C82.8034 31.285 83.2964 30.7513 83.5457 30.0959C83.7951 29.4404 83.7814 28.714 83.5077 28.0684L73.4068 4.25053C73.2637 3.91316 73.0539 3.6082 72.79 3.354C72.526 3.09979 72.2134 2.90159 71.8709 2.77131C71.5284 2.64103 71.1631 2.58136 70.7969 2.59589C70.4307 2.61041 70.0713 2.69884 69.7402 2.85584L67.7942 3.77858C67.4631 3.93559 67.1671 4.15792 66.9242 4.43222C66.6812 4.70652 66.4962 5.02712 66.3803 5.37475C66.2644 5.72238 66.2199 6.08986 66.2497 6.45509C66.2794 6.82032 66.3827 7.17577 66.5534 7.50007L78.6001 30.3951C78.9267 31.0157 79.4804 31.4861 80.1457 31.7079C80.8109 31.9297 81.5362 31.8858 82.1698 31.5854Z" fill="#19AFAF" />
                            <path d="M94.8338 29.2755C95.2924 29.2429 95.7206 29.0343 96.029 28.6933C96.3374 28.3523 96.5021 27.9054 96.4887 27.4459L95.9898 10.4896C95.9827 10.2494 95.9271 10.0132 95.8264 9.79501C95.7257 9.57685 95.5819 9.38131 95.4037 9.22014C95.2255 9.05898 95.0165 8.93551 94.7894 8.85717C94.5622 8.77882 94.3216 8.74722 94.0819 8.76425L92.6731 8.86463C92.4335 8.88169 92.1998 8.94701 91.9861 9.05666C91.7724 9.16632 91.5831 9.31805 91.4295 9.50273C91.2759 9.68742 91.1612 9.90125 91.0924 10.1314C91.0235 10.3615 91.0019 10.6032 91.0288 10.8419L92.9366 27.6979C92.9881 28.1548 93.2144 28.5742 93.568 28.8682C93.9216 29.1622 94.3751 29.3082 94.8338 29.2755V29.2755Z" fill="#19AFAF" />
                            <path d="M104.61 35.5437C105.871 36.2729 107.642 35.6037 108.624 34.0264L126.063 6.01897C127.105 4.34583 126.858 2.30659 125.52 1.53309L123.655 0.455089C122.318 -0.31855 120.427 0.484767 119.497 2.22231L103.922 31.3076C103.045 32.9457 103.348 34.8143 104.61 35.5437Z" fill="#19AFAF" />
                            <path d="M44.5952 247.466V252H43.1087V244.364H44.5355V245.607H44.63C44.8056 245.202 45.0807 244.877 45.4553 244.632C45.8331 244.387 46.3087 244.264 46.8821 244.264C47.4025 244.264 47.8582 244.374 48.2493 244.592C48.6404 244.808 48.9437 245.129 49.1591 245.557C49.3745 245.984 49.4822 246.513 49.4822 247.143V252H47.9957V247.322C47.9957 246.768 47.8516 246.336 47.5632 246.024C47.2749 245.709 46.8788 245.552 46.375 245.552C46.0303 245.552 45.7237 245.626 45.4553 245.776C45.1901 245.925 44.9796 246.143 44.8239 246.432C44.6714 246.717 44.5952 247.062 44.5952 247.466ZM54.6925 252.154C53.9766 252.154 53.3518 251.99 52.8182 251.662C52.2846 251.334 51.8703 250.875 51.5753 250.285C51.2803 249.695 51.1328 249.005 51.1328 248.217C51.1328 247.424 51.2803 246.732 51.5753 246.138C51.8703 245.545 52.2846 245.085 52.8182 244.756C53.3518 244.428 53.9766 244.264 54.6925 244.264C55.4084 244.264 56.0331 244.428 56.5668 244.756C57.1004 245.085 57.5147 245.545 57.8097 246.138C58.1046 246.732 58.2521 247.424 58.2521 248.217C58.2521 249.005 58.1046 249.695 57.8097 250.285C57.5147 250.875 57.1004 251.334 56.5668 251.662C56.0331 251.99 55.4084 252.154 54.6925 252.154ZM54.6974 250.906C55.1615 250.906 55.5459 250.784 55.8509 250.538C56.1558 250.293 56.3812 249.967 56.527 249.559C56.6761 249.151 56.7507 248.702 56.7507 248.212C56.7507 247.724 56.6761 247.277 56.527 246.869C56.3812 246.458 56.1558 246.129 55.8509 245.88C55.5459 245.631 55.1615 245.507 54.6974 245.507C54.2301 245.507 53.8423 245.631 53.5341 245.88C53.2292 246.129 53.0021 246.458 52.853 246.869C52.7071 247.277 52.6342 247.724 52.6342 248.212C52.6342 248.702 52.7071 249.151 52.853 249.559C53.0021 249.967 53.2292 250.293 53.5341 250.538C53.8423 250.784 54.2301 250.906 54.6974 250.906ZM65.103 247.466V252H63.6165V241.818H65.0831V245.607H65.1776C65.3565 245.196 65.63 244.869 65.9979 244.627C66.3658 244.385 66.8464 244.264 67.4396 244.264C67.9633 244.264 68.4207 244.372 68.8118 244.587C69.2062 244.803 69.5111 245.124 69.7266 245.552C69.9453 245.976 70.0547 246.506 70.0547 247.143V252H68.5682V247.322C68.5682 246.762 68.424 246.327 68.1357 246.019C67.8473 245.708 67.4463 245.552 66.9325 245.552C66.5812 245.552 66.2663 245.626 65.9879 245.776C65.7128 245.925 65.4957 246.143 65.3366 246.432C65.1809 246.717 65.103 247.062 65.103 247.466ZM74.2607 252.169C73.7768 252.169 73.3393 252.08 72.9482 251.901C72.5571 251.718 72.2472 251.455 72.0185 251.11C71.7931 250.765 71.6804 250.343 71.6804 249.842C71.6804 249.411 71.7633 249.057 71.929 248.778C72.0947 248.5 72.3184 248.28 72.6001 248.117C72.8819 247.955 73.1967 247.832 73.5447 247.749C73.8928 247.666 74.2474 247.603 74.6087 247.56C75.0661 247.507 75.4373 247.464 75.7223 247.431C76.0073 247.395 76.2145 247.337 76.3438 247.257C76.473 247.178 76.5376 247.048 76.5376 246.869V246.835C76.5376 246.4 76.415 246.064 76.1697 245.825C75.9278 245.587 75.5665 245.467 75.0859 245.467C74.5855 245.467 74.1911 245.578 73.9027 245.8C73.6177 246.019 73.4205 246.263 73.3111 246.531L71.9141 246.213C72.0798 245.749 72.3217 245.375 72.6399 245.089C72.9614 244.801 73.331 244.592 73.7486 244.463C74.1662 244.33 74.6054 244.264 75.0661 244.264C75.371 244.264 75.6941 244.301 76.0355 244.374C76.3802 244.443 76.7017 244.572 77 244.761C77.3016 244.95 77.5485 245.22 77.7408 245.572C77.933 245.92 78.0291 246.372 78.0291 246.929V252H76.5774V250.956H76.5178C76.4216 251.148 76.2775 251.337 76.0852 251.523C75.893 251.708 75.6461 251.862 75.3445 251.985C75.0429 252.108 74.6816 252.169 74.2607 252.169ZM74.5838 250.976C74.9948 250.976 75.3461 250.895 75.6378 250.732C75.9328 250.57 76.1565 250.358 76.3089 250.096C76.4647 249.831 76.5426 249.547 76.5426 249.246V248.261C76.4896 248.314 76.3868 248.364 76.2344 248.411C76.0852 248.454 75.9145 248.492 75.7223 248.525C75.5301 248.555 75.3428 248.583 75.1605 248.609C74.9782 248.633 74.8258 248.652 74.7031 248.669C74.4148 248.705 74.1513 248.767 73.9126 248.853C73.6773 248.939 73.4884 249.063 73.3459 249.226C73.2067 249.385 73.1371 249.597 73.1371 249.862C73.1371 250.23 73.273 250.509 73.5447 250.697C73.8165 250.883 74.1629 250.976 74.5838 250.976ZM80.6752 254.864C80.4532 254.864 80.251 254.845 80.0687 254.809C79.8864 254.776 79.7505 254.739 79.661 254.7L80.019 253.482C80.2908 253.554 80.5327 253.586 80.7449 253.576C80.957 253.566 81.1442 253.487 81.3066 253.337C81.4724 253.188 81.6182 252.945 81.7441 252.607L81.9281 252.099L79.1341 244.364H80.725L82.6589 250.29H82.7385L84.6724 244.364H86.2683L83.1213 253.019C82.9754 253.417 82.7898 253.753 82.5645 254.028C82.3391 254.307 82.0706 254.516 81.7591 254.655C81.4475 254.794 81.0862 254.864 80.6752 254.864ZM91.3704 252V244.364H92.8072V245.577H92.8867C93.0259 245.166 93.2712 244.843 93.6225 244.607C93.9772 244.369 94.3782 244.249 94.8256 244.249C94.9184 244.249 95.0278 244.253 95.1538 244.259C95.283 244.266 95.3841 244.274 95.457 244.284V245.706C95.3974 245.689 95.2913 245.671 95.1388 245.651C94.9864 245.628 94.8339 245.616 94.6815 245.616C94.3301 245.616 94.0169 245.691 93.7418 245.84C93.4701 245.986 93.2546 246.19 93.0955 246.452C92.9364 246.71 92.8569 247.005 92.8569 247.337V252H91.3704ZM99.7612 252.154C99.0088 252.154 98.3609 251.993 97.8173 251.672C97.277 251.347 96.8594 250.891 96.5645 250.305C96.2728 249.715 96.127 249.024 96.127 248.232C96.127 247.449 96.2728 246.76 96.5645 246.163C96.8594 245.567 97.2704 245.101 97.7974 244.766C98.3277 244.432 98.9475 244.264 99.6568 244.264C100.088 244.264 100.505 244.335 100.91 244.478C101.314 244.621 101.677 244.844 101.998 245.149C102.32 245.454 102.573 245.85 102.759 246.337C102.945 246.821 103.037 247.41 103.037 248.102V248.629H96.9672V247.516H101.581C101.581 247.125 101.501 246.778 101.342 246.477C101.183 246.172 100.959 245.931 100.671 245.756C100.386 245.58 100.051 245.492 99.6667 245.492C99.2491 245.492 98.8845 245.595 98.573 245.8C98.2647 246.003 98.0261 246.268 97.8571 246.596C97.6913 246.921 97.6085 247.274 97.6085 247.655V248.525C97.6085 249.035 97.698 249.469 97.877 249.827C98.0592 250.185 98.3128 250.459 98.6376 250.648C98.9624 250.833 99.3419 250.926 99.7761 250.926C100.058 250.926 100.315 250.886 100.547 250.807C100.779 250.724 100.979 250.601 101.148 250.439C101.317 250.277 101.447 250.076 101.536 249.837L102.943 250.091C102.83 250.505 102.628 250.868 102.336 251.18C102.048 251.488 101.685 251.728 101.248 251.901C100.814 252.07 100.318 252.154 99.7612 252.154ZM110.409 246.228L109.062 246.467C109.005 246.294 108.916 246.13 108.793 245.974C108.674 245.819 108.512 245.691 108.306 245.592C108.101 245.492 107.844 245.442 107.536 245.442C107.115 245.442 106.763 245.537 106.482 245.726C106.2 245.911 106.059 246.152 106.059 246.447C106.059 246.702 106.153 246.907 106.342 247.063C106.531 247.219 106.836 247.347 107.257 247.446L108.47 247.724C109.173 247.887 109.696 248.137 110.041 248.475C110.386 248.813 110.558 249.252 110.558 249.793C110.558 250.25 110.426 250.658 110.161 251.016C109.899 251.37 109.532 251.649 109.062 251.851C108.594 252.053 108.053 252.154 107.436 252.154C106.581 252.154 105.883 251.972 105.343 251.607C104.803 251.239 104.471 250.717 104.349 250.041L105.786 249.822C105.875 250.197 106.059 250.48 106.337 250.673C106.616 250.862 106.979 250.956 107.426 250.956C107.913 250.956 108.303 250.855 108.594 250.653C108.886 250.447 109.032 250.197 109.032 249.902C109.032 249.663 108.942 249.463 108.763 249.3C108.588 249.138 108.318 249.015 107.953 248.933L106.661 248.649C105.948 248.487 105.421 248.228 105.08 247.874C104.741 247.519 104.572 247.07 104.572 246.526C104.572 246.076 104.698 245.681 104.95 245.343C105.202 245.005 105.55 244.741 105.994 244.553C106.438 244.36 106.947 244.264 107.521 244.264C108.346 244.264 108.996 244.443 109.469 244.801C109.943 245.156 110.257 245.631 110.409 246.228ZM117.03 248.833V244.364H118.521V252H117.06V250.678H116.98C116.805 251.085 116.523 251.425 116.135 251.697C115.751 251.965 115.272 252.099 114.698 252.099C114.208 252.099 113.774 251.992 113.396 251.776C113.021 251.558 112.726 251.234 112.511 250.807C112.299 250.379 112.193 249.851 112.193 249.221V244.364H113.679V249.042C113.679 249.562 113.823 249.977 114.112 250.285C114.4 250.593 114.775 250.747 115.235 250.747C115.514 250.747 115.79 250.678 116.066 250.538C116.344 250.399 116.574 250.189 116.757 249.907C116.942 249.625 117.033 249.267 117.03 248.833ZM122.005 241.818V252H120.519V241.818H122.005ZM127.57 244.364V245.557H123.399V244.364H127.57ZM124.517 242.534H126.004V249.758C126.004 250.046 126.047 250.263 126.133 250.409C126.219 250.552 126.33 250.649 126.466 250.702C126.605 250.752 126.756 250.777 126.919 250.777C127.038 250.777 127.142 250.769 127.232 250.752C127.321 250.736 127.391 250.722 127.441 250.712L127.709 251.94C127.623 251.973 127.5 252.007 127.341 252.04C127.182 252.076 126.983 252.096 126.744 252.099C126.353 252.106 125.989 252.036 125.651 251.891C125.313 251.745 125.039 251.519 124.83 251.214C124.622 250.91 124.517 250.527 124.517 250.066V242.534ZM131.436 252.169C130.953 252.169 130.515 252.08 130.124 251.901C129.733 251.718 129.423 251.455 129.194 251.11C128.969 250.765 128.856 250.343 128.856 249.842C128.856 249.411 128.939 249.057 129.105 248.778C129.27 248.5 129.494 248.28 129.776 248.117C130.058 247.955 130.373 247.832 130.721 247.749C131.069 247.666 131.423 247.603 131.784 247.56C132.242 247.507 132.613 247.464 132.898 247.431C133.183 247.395 133.39 247.337 133.52 247.257C133.649 247.178 133.713 247.048 133.713 246.869V246.835C133.713 246.4 133.591 246.064 133.346 245.825C133.104 245.587 132.742 245.467 132.262 245.467C131.761 245.467 131.367 245.578 131.078 245.8C130.793 246.019 130.596 246.263 130.487 246.531L129.09 246.213C129.256 245.749 129.498 245.375 129.816 245.089C130.137 244.801 130.507 244.592 130.924 244.463C131.342 244.33 131.781 244.264 132.242 244.264C132.547 244.264 132.87 244.301 133.211 244.374C133.556 244.443 133.877 244.572 134.176 244.761C134.477 244.95 134.724 245.22 134.917 245.572C135.109 245.92 135.205 246.372 135.205 246.929V252H133.753V250.956H133.694C133.597 251.148 133.453 251.337 133.261 251.523C133.069 251.708 132.822 251.862 132.52 251.985C132.219 252.108 131.857 252.169 131.436 252.169ZM131.76 250.976C132.171 250.976 132.522 250.895 132.814 250.732C133.109 250.57 133.332 250.358 133.485 250.096C133.641 249.831 133.718 249.547 133.718 249.246V248.261C133.665 248.314 133.563 248.364 133.41 248.411C133.261 248.454 133.09 248.492 132.898 248.525C132.706 248.555 132.519 248.583 132.336 248.609C132.154 248.633 132.002 248.652 131.879 248.669C131.591 248.705 131.327 248.767 131.088 248.853C130.853 248.939 130.664 249.063 130.522 249.226C130.382 249.385 130.313 249.597 130.313 249.862C130.313 250.23 130.449 250.509 130.721 250.697C130.992 250.883 131.339 250.976 131.76 250.976ZM140.044 252.149C139.427 252.149 138.877 251.992 138.393 251.677C137.912 251.359 137.535 250.906 137.259 250.32C136.988 249.73 136.852 249.022 136.852 248.197C136.852 247.371 136.989 246.665 137.264 246.079C137.543 245.492 137.924 245.043 138.408 244.732C138.892 244.42 139.44 244.264 140.053 244.264C140.527 244.264 140.909 244.344 141.197 244.503C141.489 244.659 141.714 244.841 141.873 245.05C142.035 245.259 142.161 245.442 142.251 245.602H142.34V241.818H143.827V252H142.375V250.812H142.251C142.161 250.974 142.032 251.16 141.863 251.369C141.697 251.577 141.469 251.76 141.177 251.915C140.885 252.071 140.508 252.149 140.044 252.149ZM140.372 250.881C140.799 250.881 141.16 250.769 141.455 250.543C141.754 250.315 141.979 249.998 142.132 249.594C142.287 249.189 142.365 248.719 142.365 248.182C142.365 247.652 142.289 247.187 142.137 246.79C141.984 246.392 141.76 246.082 141.465 245.86C141.17 245.638 140.806 245.527 140.372 245.527C139.924 245.527 139.551 245.643 139.253 245.875C138.955 246.107 138.729 246.424 138.577 246.825C138.428 247.226 138.353 247.678 138.353 248.182C138.353 248.692 138.429 249.151 138.582 249.559C138.734 249.967 138.96 250.29 139.258 250.528C139.56 250.764 139.931 250.881 140.372 250.881ZM149.165 252.154C148.449 252.154 147.824 251.99 147.291 251.662C146.757 251.334 146.343 250.875 146.048 250.285C145.753 249.695 145.605 249.005 145.605 248.217C145.605 247.424 145.753 246.732 146.048 246.138C146.343 245.545 146.757 245.085 147.291 244.756C147.824 244.428 148.449 244.264 149.165 244.264C149.881 244.264 150.506 244.428 151.039 244.756C151.573 245.085 151.987 245.545 152.282 246.138C152.577 246.732 152.725 247.424 152.725 248.217C152.725 249.005 152.577 249.695 152.282 250.285C151.987 250.875 151.573 251.334 151.039 251.662C150.506 251.99 149.881 252.154 149.165 252.154ZM149.17 250.906C149.634 250.906 150.019 250.784 150.324 250.538C150.628 250.293 150.854 249.967 151 249.559C151.149 249.151 151.223 248.702 151.223 248.212C151.223 247.724 151.149 247.277 151 246.869C150.854 246.458 150.628 246.129 150.324 245.88C150.019 245.631 149.634 245.507 149.17 245.507C148.703 245.507 148.315 245.631 148.007 245.88C147.702 246.129 147.475 246.458 147.326 246.869C147.18 247.277 147.107 247.724 147.107 248.212C147.107 248.702 147.18 249.151 147.326 249.559C147.475 249.967 147.702 250.293 148.007 250.538C148.315 250.784 148.703 250.906 149.17 250.906ZM160.106 246.228L158.759 246.467C158.703 246.294 158.613 246.13 158.491 245.974C158.371 245.819 158.209 245.691 158.003 245.592C157.798 245.492 157.541 245.442 157.233 245.442C156.812 245.442 156.461 245.537 156.179 245.726C155.897 245.911 155.756 246.152 155.756 246.447C155.756 246.702 155.851 246.907 156.04 247.063C156.229 247.219 156.533 247.347 156.954 247.446L158.167 247.724C158.87 247.887 159.394 248.137 159.738 248.475C160.083 248.813 160.256 249.252 160.256 249.793C160.256 250.25 160.123 250.658 159.858 251.016C159.596 251.37 159.23 251.649 158.759 251.851C158.292 252.053 157.75 252.154 157.133 252.154C156.278 252.154 155.581 251.972 155.04 251.607C154.5 251.239 154.169 250.717 154.046 250.041L155.483 249.822C155.572 250.197 155.756 250.48 156.035 250.673C156.313 250.862 156.676 250.956 157.123 250.956C157.611 250.956 158 250.855 158.292 250.653C158.583 250.447 158.729 250.197 158.729 249.902C158.729 249.663 158.64 249.463 158.461 249.3C158.285 249.138 158.015 249.015 157.65 248.933L156.358 248.649C155.645 248.487 155.118 248.228 154.777 247.874C154.439 247.519 154.27 247.07 154.27 246.526C154.27 246.076 154.396 245.681 154.648 245.343C154.899 245.005 155.247 244.741 155.692 244.553C156.136 244.36 156.644 244.264 157.218 244.264C158.043 244.264 158.693 244.443 159.167 244.801C159.641 245.156 159.954 245.631 160.106 246.228Z" fill="black" />
                        </svg>