<svg width="16" height="16" viewBox="0 0 26 26" fill="none" xmlns="http://www.w3.org/2000/svg">
<path fill-rule="evenodd" clip-rule="evenodd" d="M12.625 25.6875C15.9402 25.6875 19.1196 24.3705 21.4638 22.0263C23.808 19.6821 25.125 16.5027 25.125 13.1875C25.125 9.87229 23.808 6.69287 21.4638 4.34867C19.1196 2.00446 15.9402 0.6875 12.625 0.6875C9.30979 0.6875 6.13037 2.00446 3.78617 4.34867C1.44196 6.69287 0.125 9.87229 0.125 13.1875C0.125 16.5027 1.44196 19.6821 3.78617 22.0263C6.13037 24.3705 9.30979 25.6875 12.625 25.6875ZM14.1875 6.9375C14.1875 6.5231 14.0229 6.12567 13.7299 5.83265C13.4368 5.53962 13.0394 5.375 12.625 5.375C12.2106 5.375 11.8132 5.53962 11.5201 5.83265C11.2271 6.12567 11.0625 6.5231 11.0625 6.9375V13.1875C11.0626 13.6019 11.2273 13.9992 11.5203 14.2922L15.9391 18.7125C16.0842 18.8577 16.2566 18.9728 16.4463 19.0514C16.6359 19.13 16.8392 19.1704 17.0445 19.1704C17.2498 19.1704 17.4531 19.13 17.6428 19.0514C17.8325 18.9728 18.0048 18.8577 18.15 18.7125C18.2952 18.5673 18.4103 18.395 18.4889 18.2053C18.5675 18.0156 18.6079 17.8123 18.6079 17.607C18.6079 17.4017 18.5675 17.1984 18.4889 17.0088C18.4103 16.8191 18.2952 16.6467 18.15 16.5016L14.1875 12.5406V6.9375Z" fill="#FFFFFF"/>
</svg>
