<svg width="19" height="19" viewBox="0 0 19 19" fill="none" xmlns="http://www.w3.org/2000/svg">
<path fillRule="evenodd" clipRule="evenodd" d="M10.3379 4.32767L4.32749 10.3381C3.39805 11.2675 3.39805 12.7745 4.32749 13.7039C5.25694 14.6334 6.76387 14.6334 7.69332 13.7039L13.7037 7.6935C14.6332 6.76405 14.6332 5.25712 13.7037 4.32767C12.7743 3.39823 11.2673 3.39823 10.3379 4.32767ZM3.0052 9.01579C1.34548 10.6755 1.34548 13.3665 3.0052 15.0262C4.66493 16.6859 7.35588 16.6859 9.01561 15.0262L15.026 9.01579C16.6857 7.35606 16.6857 4.66511 15.026 3.00538C13.3663 1.34566 10.6753 1.34566 9.01561 3.00538L3.0052 9.01579Z" fill="white"/>
<path fillRule="evenodd" clipRule="evenodd" d="M9.26328 14.7783L12.1586 11.8829L8.5524 8.2767L2.54199 14.2871L2.61026 14.3554L9.26328 14.7783Z" fill="white"/>
</svg>
