<svg width="24" height="24" fill="none" xmlns="http://www.w3.org/2000/svg"><path d="M17.5 13c0-.274.226-.5.5-.5s.5.226.5.5v6c0 .824-.676 1.5-1.5 1.5H5c-.824 0-1.5-.676-1.5-1.5V7c0-.824.676-1.5 1.5-1.5h6c.274 0 .5.226.5.5s-.226.5-.5.5H6c-.826 0-1.5.674-1.5 1.5v10.22c0 .826.674 1.5 1.5 1.5h10c.826 0 1.5-.674 1.5-1.5V13Z" fill="#fff" stroke="#fff"/><path d="M21.02 5H19V2.98c0-.54-.44-.98-.98-.98h-.03c-.55 0-.99.44-.99.98V5h-2.01c-.54 0-.98.44-.99.98v.03c0 .55.44.99.99.99H17v2.01c0 .54.44.99.99.98h.03c.54 0 .98-.44.98-.98V7h2.02c.54 0 .98-.44.98-.98v-.04c0-.54-.44-.98-.98-.98ZM14 9H8c-.55 0-1 .45-1 1s.45 1 1 1h6c.55 0 1-.45 1-1s-.45-1-1-1ZM14 12H8c-.55 0-1 .45-1 1s.45 1 1 1h6c.55 0 1-.45 1-1s-.45-1-1-1ZM14 15H8c-.55 0-1 .45-1 1s.45 1 1 1h6c.55 0 1-.45 1-1s-.45-1-1-1Z" fill="#fff"/></svg>