<svg width="23" height="27" viewBox="0 0 23 27" fill="none" xmlns="http://www.w3.org/2000/svg">
<path fill-rule="evenodd" clip-rule="evenodd" d="M22.125 3.4375H21.6875V2.5625C21.6875 1.355 20.7075 0.375 19.5 0.375C18.2925 0.375 17.3125 1.355 17.3125 2.5625V3.4375H16.875C16.3938 3.4375 16 3.83125 16 4.3125V8.6875C16 9.16875 16.3938 9.5625 16.875 9.5625H22.125C22.6062 9.5625 23 9.16875 23 8.6875V4.3125C23 3.83125 22.6062 3.4375 22.125 3.4375ZM18.1875 2.5625V3.4375H20.8125V2.5625C20.8125 1.83625 20.2263 1.25 19.5 1.25C18.7738 1.25 18.1875 1.83625 18.1875 2.5625Z" fill="white"/>
<path fill-rule="evenodd" clip-rule="evenodd" d="M15 6.5H2C0.9 6.5 0 7.4 0 8.5V26.5L4 22.5H18C19.1 22.5 20 21.6 20 20.5V10.5H17C15.8954 10.5 15 9.60457 15 8.5V6.5Z" fill="white"/>
</svg>
