<svg width="16" height="20" viewBox="0 0 16 20" fill="none" xmlns="http://www.w3.org/2000/svg">
<path d="M5.6001 1.60039C5.6001 1.28213 5.72653 0.976906 5.95157 0.751862C6.17661 0.526819 6.48184 0.400391 6.8001 0.400391H9.2001C9.51836 0.400391 9.82358 0.526819 10.0486 0.751862C10.2737 0.976906 10.4001 1.28213 10.4001 1.60039C10.4001 1.91865 10.2737 2.22388 10.0486 2.44892C9.82358 2.67396 9.51836 2.80039 9.2001 2.80039H6.8001C6.48184 2.80039 6.17661 2.67396 5.95157 2.44892C5.72653 2.22388 5.6001 1.91865 5.6001 1.60039Z" fill="white"/>
<path d="M3.1998 1.59961C2.56329 1.59961 1.95284 1.85247 1.50275 2.30255C1.05266 2.75264 0.799805 3.36309 0.799805 3.99961V17.1996C0.799805 17.8361 1.05266 18.4466 1.50275 18.8967C1.95284 19.3468 2.56329 19.5996 3.1998 19.5996H12.7998C13.4363 19.5996 14.0468 19.3468 14.4969 18.8967C14.9469 18.4466 15.1998 17.8361 15.1998 17.1996V3.99961C15.1998 3.36309 14.9469 2.75264 14.4969 2.30255C14.0468 1.85247 13.4363 1.59961 12.7998 1.59961C12.7998 2.55439 12.4205 3.47006 11.7454 4.14519C11.0703 4.82032 10.1546 5.19961 9.19981 5.19961H6.7998C5.84503 5.19961 4.92935 4.82032 4.25422 4.14519C3.57909 3.47006 3.1998 2.55439 3.1998 1.59961Z" fill="white"/>
</svg>
