<svg width="28" height="28" viewBox="0 0 28 28" fill="none" xmlns="http://www.w3.org/2000/svg">
<path d="M0 14C0 6.26801 6.26801 0 14 0V0C21.732 0 28 6.26801 28 14V14C28 21.732 21.732 28 14 28V28C6.26801 28 0 21.732 0 14V14Z" fill="#27BEC2"/>
<rect x="4" y="4" width="20" height="20" rx="10" fill="white"/>
<path d="M11.0895 18H16.2741V16.7429H13.2202V16.6932L14.282 15.6527C15.777 14.2891 16.1783 13.6072 16.1783 12.7798C16.1783 11.5192 15.1484 10.6278 13.5895 10.6278C12.0625 10.6278 11.0149 11.5405 11.0185 12.968H12.478C12.4744 12.272 12.9148 11.8459 13.5788 11.8459C14.218 11.8459 14.6939 12.2436 14.6939 12.8828C14.6939 13.4616 14.3388 13.8594 13.6783 14.495L11.0895 16.892V18Z" fill="#6B7280"/>
</svg>
