<svg width="28" height="28" viewBox="0 0 28 28" fill="none" xmlns="http://www.w3.org/2000/svg">
<path d="M0 14C0 6.26801 6.26801 0 14 0V0C21.732 0 28 6.26801 28 14V14C28 21.732 21.732 28 14 28V28C6.26801 28 0 21.732 0 14V14Z" fill="#EDF2F7"/>
<rect x="4" y="4" width="20" height="20" rx="10" fill="white"/>
<path d="M13.7777 18.0994C15.4112 18.0994 16.5795 17.201 16.576 15.9581C16.5795 15.0526 16.0043 14.4062 14.9354 14.2713V14.2145C15.7486 14.0689 16.3097 13.4936 16.3061 12.6768C16.3097 11.5298 15.3047 10.6278 13.799 10.6278C12.3075 10.6278 11.1854 11.5014 11.1641 12.7585H12.6378C12.6555 12.2045 13.1634 11.8459 13.7919 11.8459C14.4134 11.8459 14.8288 12.2223 14.8253 12.7692C14.8288 13.3409 14.3423 13.728 13.6428 13.728H12.9645V14.8572H13.6428C14.4666 14.8572 14.9815 15.2692 14.978 15.8551C14.9815 16.4339 14.4844 16.8317 13.7812 16.8317C13.103 16.8317 12.5952 16.4766 12.5668 15.9439H11.0185C11.0433 17.2152 12.1797 18.0994 13.7777 18.0994Z" fill="#6B7280"/>
</svg>
