<svg width="28" height="29" viewBox="0 0 28 29" fill="none" xmlns="http://www.w3.org/2000/svg">
<path d="M0 14.6562C0 6.92426 6.26801 0.65625 14 0.65625V0.65625C21.732 0.65625 28 6.92426 28 14.6562V14.6562C28 22.3882 21.732 28.6562 14 28.6562V28.6562C6.26801 28.6562 0 22.3882 0 14.6562V14.6562Z" fill="#27BEC2"/>
<rect x="4" y="4.65625" width="20" height="20" rx="10" fill="white"/>
<path d="M13.7777 18.7557C15.4112 18.7557 16.5795 17.8572 16.576 16.6143C16.5795 15.7088 16.0043 15.0625 14.9354 14.9276V14.8707C15.7486 14.7251 16.3097 14.1499 16.3061 13.3331C16.3097 12.1861 15.3047 11.2841 13.799 11.2841C12.3075 11.2841 11.1854 12.1577 11.1641 13.4148H12.6378C12.6555 12.8608 13.1634 12.5021 13.7919 12.5021C14.4134 12.5021 14.8288 12.8786 14.8253 13.4254C14.8288 13.9972 14.3423 14.3842 13.6428 14.3842H12.9645V15.5135H13.6428C14.4666 15.5135 14.9815 15.9254 14.978 16.5114C14.9815 17.0902 14.4844 17.4879 13.7812 17.4879C13.103 17.4879 12.5952 17.1328 12.5668 16.6001H11.0185C11.0433 17.8714 12.1797 18.7557 13.7777 18.7557Z" fill="#6B7280"/>
</svg>