<svg width="16" height="16" viewBox="0 0 18 17" fill="none" xmlns="http://www.w3.org/2000/svg">
<path d="M9.25008 0.3125C4.66675 0.3125 0.916748 4.0625 0.916748 8.64583C0.916748 13.2292 4.66675 16.9792 9.25008 16.9792C13.8334 16.9792 17.5834 13.2292 17.5834 8.64583C17.5834 4.0625 13.8334 0.3125 9.25008 0.3125ZM12.2084 11.8125L8.80841 9.72083C8.55841 9.57083 8.40841 9.30417 8.40841 9.0125V5.10417C8.41675 4.7625 8.70008 4.47917 9.04175 4.47917C9.38341 4.47917 9.66675 4.7625 9.66675 5.10417V8.8125L12.8667 10.7375C13.1667 10.9208 13.2667 11.3125 13.0834 11.6125C12.9001 11.9042 12.5084 11.9958 12.2084 11.8125Z" fill="#364152"/>
</svg>
