<svg width="77" height="31" viewBox="0 0 77 31" fill="none" xmlns="http://www.w3.org/2000/svg">
<rect x="0.955882" y="1.35237" width="74.8235" height="28.2353" rx="14.1176" fill="#F7FAFC"/>
<path d="M28.0442 15.4707C29.4242 15.4707 30.5342 14.3507 30.5342 12.9707C30.5342 11.5907 29.4242 10.4707 28.0442 10.4707C26.6642 10.4707 25.5442 11.5907 25.5442 12.9707C25.5442 14.3507 26.6642 15.4707 28.0442 15.4707ZM20.5442 14.4707C22.2042 14.4707 23.5342 13.1307 23.5342 11.4707C23.5342 9.8107 22.2042 8.4707 20.5442 8.4707C18.8842 8.4707 17.5442 9.8107 17.5442 11.4707C17.5442 13.1307 18.8842 14.4707 20.5442 14.4707ZM28.0442 17.4707C26.2142 17.4707 22.5442 18.3907 22.5442 20.2207V21.4707C22.5442 22.0207 22.9942 22.4707 23.5442 22.4707H32.5442C33.0942 22.4707 33.5442 22.0207 33.5442 21.4707V20.2207C33.5442 18.3907 29.8742 17.4707 28.0442 17.4707ZM20.5442 16.4707C18.2142 16.4707 13.5442 17.6407 13.5442 19.9707V21.4707C13.5442 22.0207 13.9942 22.4707 14.5442 22.4707H20.5442V20.2207C20.5442 19.3707 20.8742 17.8807 22.9142 16.7507C22.0442 16.5707 21.2042 16.4707 20.5442 16.4707Z" fill="#EDF2F7"/>
<line x1="38.5794" y1="7.21176" x2="38.5794" y2="23.7294" stroke="#CBD5E0" stroke-width="0.423529" stroke-linecap="round"/>
<path d="M58.1912 13.9707V10.4707C58.1912 9.9207 57.7412 9.4707 57.1912 9.4707H45.1912C44.6412 9.4707 44.1912 9.9207 44.1912 10.4707V20.4707C44.1912 21.0207 44.6412 21.4707 45.1912 21.4707H57.1912C57.7412 21.4707 58.1912 21.0207 58.1912 20.4707V16.9707L60.4812 19.2607C61.1112 19.8907 62.1912 19.4407 62.1912 18.5507V12.3807C62.1912 11.4907 61.1112 11.0407 60.4812 11.6707L58.1912 13.9707Z" fill="#EB8B76"/>
<rect x="0.955882" y="1.35237" width="74.8235" height="28.2353" rx="14.1176" stroke="#EDF2F7" stroke-width="1.41176"/>
</svg>
