<svg width="198" height="42" fill="none" xmlns="http://www.w3.org/2000/svg"><rect width="198" height="42" rx="16" fill="#fff"/><path d="M24.5 21c1.38 0 2.49-1.12 2.49-2.5S25.88 16 24.5 16a2.5 2.5 0 0 0 0 5ZM17 20c1.66 0 2.99-1.34 2.99-3s-1.33-3-2.99-3c-1.66 0-3 1.34-3 3s1.34 3 3 3Zm7.5 3c-1.83 0-5.5.92-5.5 2.75V27c0 .55.45 1 1 1h9c.55 0 1-.45 1-1v-1.25c0-1.83-3.67-2.75-5.5-2.75ZM17 22c-2.33 0-7 1.17-7 3.5V27c0 .55.45 1 1 1h6v-2.25c0-.85.33-2.34 2.37-3.47C18.5 22.1 17.66 22 17 22Z" fill="#DF6D51"/><path d="M42.672 12.493a1.453 1.453 0 0 0-.656-1.094c-.385-.262-.869-.393-1.452-.393-.418 0-.779.067-1.084.2-.305.129-.542.308-.71.536a1.268 1.268 0 0 0-.25.77c0 .243.057.451.17.627.116.176.266.323.452.443.189.116.391.213.607.293.215.076.422.14.621.189l.994.258c.325.08.658.188 1 .324.341.135.658.314.95.536.29.223.526.498.705.826.183.328.274.72.274 1.178 0 .577-.15 1.089-.448 1.536-.295.448-.724.8-1.288 1.06-.56.258-1.237.387-2.033.387-.762 0-1.422-.12-1.979-.363-.556-.242-.992-.585-1.307-1.029-.315-.448-.489-.978-.522-1.59h1.541c.03.367.15.674.358.919.212.242.482.422.81.542.332.116.695.174 1.09.174.433 0 .82-.068 1.158-.204.341-.14.61-.331.805-.577.195-.248.293-.538.293-.87 0-.301-.086-.548-.258-.74a1.91 1.91 0 0 0-.691-.478 6.755 6.755 0 0 0-.98-.333l-1.203-.328c-.815-.222-1.461-.549-1.939-.98-.474-.43-.71-1-.71-1.71 0-.586.158-1.098.477-1.536.318-.437.749-.777 1.292-1.02.544-.244 1.157-.367 1.84-.367.69 0 1.297.121 1.824.363.53.242.948.575 1.253 1 .305.42.464.904.477 1.45h-1.481Zm8.174 4.34v-4.47h1.492V20h-1.462v-1.322h-.08a2.383 2.383 0 0 1-.844 1.019c-.385.268-.864.402-1.437.402-.49 0-.925-.107-1.303-.323a2.271 2.271 0 0 1-.885-.97c-.212-.427-.318-.955-.318-1.585v-4.857h1.487v4.678c0 .52.144.935.432 1.243.288.308.663.462 1.124.462.278 0 .555-.07.83-.209.278-.139.509-.35.691-.631.186-.282.277-.64.273-1.074ZM54.455 20V9.818h1.486v3.784h.09c.086-.16.21-.344.372-.552a2.11 2.11 0 0 1 .677-.547c.288-.16.67-.239 1.143-.239.617 0 1.167.156 1.65.468.485.311.864.76 1.14 1.347.278.586.417 1.292.417 2.118 0 .825-.138 1.533-.413 2.123-.275.586-.653 1.039-1.134 1.357-.48.315-1.029.472-1.645.472-.464 0-.844-.078-1.139-.233a2.155 2.155 0 0 1-.686-.547 4.134 4.134 0 0 1-.382-.557h-.125V20h-1.451Zm1.456-3.818c0 .537.078 1.007.234 1.412.156.404.381.72.676.95.295.225.656.337 1.084.337.444 0 .815-.117 1.114-.353a2.19 2.19 0 0 0 .676-.97c.155-.407.233-.866.233-1.376 0-.504-.076-.956-.228-1.357a2.078 2.078 0 0 0-.677-.95c-.298-.232-.67-.348-1.118-.348-.431 0-.796.111-1.094.333-.295.222-.519.532-.671.93-.153.398-.229.862-.229 1.392ZM63.1 20v-7.636h1.486V20H63.1Zm.75-8.815a.945.945 0 0 1-.666-.258.84.84 0 0 1-.273-.627.83.83 0 0 1 .273-.626.935.935 0 0 1 .667-.263c.258 0 .479.087.66.263a.824.824 0 0 1 .28.626c0 .242-.094.451-.28.627a.927.927 0 0 1-.66.258Zm5.595 8.964a2.96 2.96 0 0 1-1.65-.472c-.481-.318-.86-.77-1.134-1.357-.272-.59-.408-1.298-.408-2.123 0-.826.138-1.531.413-2.118.278-.587.66-1.036 1.143-1.348a2.974 2.974 0 0 1 1.646-.467c.474 0 .855.08 1.143.239.292.156.517.338.676.547.163.208.289.393.378.552h.09V9.818h1.486V20h-1.451v-1.188h-.125c-.09.162-.218.348-.388.557a2.155 2.155 0 0 1-.686.547c-.291.155-.67.233-1.133.233Zm.328-1.268c.428 0 .789-.112 1.084-.338.298-.228.523-.545.676-.95.156-.404.234-.874.234-1.411 0-.53-.077-.994-.23-1.392-.151-.398-.375-.708-.67-.93-.295-.222-.66-.333-1.094-.333-.447 0-.82.116-1.119.348a2.126 2.126 0 0 0-.676.95c-.149.4-.223.853-.223 1.357 0 .51.076.97.228 1.377.153.408.378.73.676.97.302.235.673.352 1.114.352Zm8.793 1.273c-.715 0-1.34-.164-1.874-.492a3.319 3.319 0 0 1-1.243-1.377c-.295-.59-.442-1.28-.442-2.068 0-.792.147-1.485.442-2.078a3.312 3.312 0 0 1 1.243-1.383c.534-.328 1.159-.492 1.874-.492.716 0 1.341.164 1.875.492.533.329.948.79 1.243 1.383.295.593.442 1.286.442 2.078 0 .788-.147 1.478-.442 2.068a3.319 3.319 0 0 1-1.243 1.377c-.534.328-1.159.492-1.874.492Zm.005-1.248c.465 0 .849-.122 1.154-.368.305-.245.53-.571.676-.98.15-.407.224-.856.224-1.346 0-.488-.075-.935-.224-1.343a2.187 2.187 0 0 0-.676-.989c-.305-.249-.69-.373-1.154-.373-.467 0-.855.124-1.163.373a2.222 2.222 0 0 0-.681.99 3.96 3.96 0 0 0-.219 1.342c0 .49.073.94.219 1.347.15.408.376.734.681.98.308.245.696.367 1.163.367Zm8.92 3.958v-10.5h1.451v1.238h.124c.087-.16.211-.344.373-.552a2.11 2.11 0 0 1 .677-.547c.288-.16.669-.239 1.143-.239.617 0 1.167.156 1.65.468.484.311.864.76 1.14 1.347.278.586.417 1.292.417 2.118 0 .825-.138 1.533-.413 2.123-.275.586-.653 1.039-1.134 1.357-.48.315-1.029.472-1.645.472-.464 0-.844-.078-1.139-.233a2.156 2.156 0 0 1-.686-.547 4.142 4.142 0 0 1-.382-.557h-.09v4.052H87.49Zm1.456-6.682c0 .537.078 1.007.234 1.412.156.404.381.72.676.95.295.225.656.337 1.084.337.444 0 .815-.117 1.113-.353a2.19 2.19 0 0 0 .677-.97c.155-.407.233-.866.233-1.376 0-.504-.076-.956-.228-1.357a2.078 2.078 0 0 0-.677-.95c-.298-.232-.67-.348-1.118-.348-.431 0-.796.111-1.094.333-.295.222-.519.532-.671.93-.153.398-.229.862-.229 1.392Zm10.4 3.972c-.715 0-1.34-.164-1.874-.492a3.319 3.319 0 0 1-1.242-1.377c-.295-.59-.443-1.28-.443-2.068 0-.792.148-1.485.443-2.078a3.312 3.312 0 0 1 1.242-1.383c.534-.328 1.159-.492 1.875-.492s1.34.164 1.874.492a3.31 3.31 0 0 1 1.243 1.383c.295.593.442 1.286.442 2.078 0 .788-.147 1.478-.442 2.068a3.316 3.316 0 0 1-1.243 1.377c-.534.328-1.158.492-1.874.492Zm.006-1.248c.464 0 .848-.122 1.153-.368.305-.245.53-.571.676-.98.149-.407.224-.856.224-1.346 0-.488-.075-.935-.224-1.343a2.187 2.187 0 0 0-.676-.989c-.305-.249-.69-.373-1.153-.373-.468 0-.855.124-1.164.373a2.221 2.221 0 0 0-.68.99 3.958 3.958 0 0 0-.22 1.342c0 .49.073.94.22 1.347.148.408.376.734.68.98.309.245.696.367 1.164.367ZM104.566 20v-7.636h1.436v1.213h.08c.139-.411.385-.734.736-.97a2.105 2.105 0 0 1 1.203-.358 6.372 6.372 0 0 1 .631.035v1.422a2.61 2.61 0 0 0-.318-.055 3.031 3.031 0 0 0-.457-.034 1.94 1.94 0 0 0-.94.223 1.66 1.66 0 0 0-.885 1.497V20h-1.486Zm12.369.154c-.752 0-1.4-.16-1.944-.482a3.273 3.273 0 0 1-1.253-1.367c-.291-.59-.437-1.281-.437-2.073 0-.783.146-1.472.437-2.069a3.398 3.398 0 0 1 1.233-1.397c.531-.334 1.15-.502 1.86-.502.43 0 .848.072 1.252.214.405.143.768.366 1.089.671.322.305.575.701.761 1.188.185.484.278 1.073.278 1.765v.527h-6.07v-1.113h4.614c0-.392-.08-.738-.239-1.04a1.805 1.805 0 0 0-.671-.72 1.875 1.875 0 0 0-1.004-.264 1.94 1.94 0 0 0-1.094.308 2.071 2.071 0 0 0-.716.796 2.293 2.293 0 0 0-.249 1.059v.87c0 .51.09.945.269 1.302.182.358.436.632.76.82.325.186.705.28 1.139.28.282 0 .539-.04.771-.12.232-.083.432-.206.601-.368.169-.163.298-.363.388-.602l1.407.254a2.549 2.549 0 0 1-.607 1.089 2.939 2.939 0 0 1-1.088.72c-.435.17-.93.254-1.487.254Zm6.412-10.336V20h-1.486V9.818h1.486Zm5.705 13.046v-10.5h1.452v1.238h.124c.086-.16.21-.344.373-.552.162-.21.388-.391.676-.547.288-.16.67-.239 1.143-.239.617 0 1.167.156 1.651.468.484.311.863.76 1.139 1.347.278.586.417 1.292.417 2.118 0 .825-.137 1.533-.412 2.123-.276.586-.653 1.039-1.134 1.357a2.936 2.936 0 0 1-1.646.472c-.464 0-.843-.078-1.138-.233a2.154 2.154 0 0 1-.686-.547 4.164 4.164 0 0 1-.383-.557h-.089v4.052h-1.487Zm1.457-6.682c0 .537.078 1.007.233 1.412.156.404.382.72.677.95.294.225.656.337 1.083.337.444 0 .816-.117 1.114-.353.298-.238.524-.561.676-.97.156-.407.234-.866.234-1.376 0-.504-.076-.956-.229-1.357a2.073 2.073 0 0 0-.676-.95c-.298-.232-.671-.348-1.119-.348-.431 0-.795.111-1.093.333-.295.222-.519.532-.672.93-.152.398-.228.862-.228 1.392Zm9.406 3.987c-.484 0-.921-.09-1.313-.268a2.206 2.206 0 0 1-.929-.79c-.226-.346-.338-.768-.338-1.269 0-.43.083-.785.248-1.064.166-.278.39-.498.671-.66a3.51 3.51 0 0 1 .945-.369 9.396 9.396 0 0 1 1.064-.189l1.114-.129c.285-.036.492-.094.621-.174.129-.08.194-.209.194-.388v-.034c0-.435-.123-.771-.368-1.01-.242-.238-.603-.358-1.084-.358-.5 0-.895.111-1.183.333-.285.22-.482.463-.592.731l-1.397-.318c.166-.464.408-.838.726-1.123a2.945 2.945 0 0 1 1.109-.627 4.325 4.325 0 0 1 1.317-.199c.305 0 .628.037.97.11.345.07.666.198.964.387.302.19.549.46.741.81.192.349.288.801.288 1.358V20h-1.451v-1.044h-.06c-.096.192-.24.381-.432.567-.193.185-.44.34-.741.462-.302.123-.663.184-1.084.184Zm.323-1.193c.411 0 .762-.081 1.054-.244.295-.162.519-.374.671-.636a1.65 1.65 0 0 0 .234-.85v-.985c-.053.053-.156.103-.308.15-.149.043-.32.08-.512.114-.193.03-.38.058-.562.084l-.458.06a3.692 3.692 0 0 0-.79.184c-.235.086-.424.21-.567.373-.139.159-.209.371-.209.636 0 .368.136.647.408.835.272.186.618.279 1.039.279Zm8.642 1.178c-.739 0-1.376-.167-1.909-.502a3.327 3.327 0 0 1-1.223-1.397c-.285-.593-.428-1.273-.428-2.038 0-.776.146-1.46.438-2.054a3.343 3.343 0 0 1 1.233-1.397c.53-.334 1.155-.502 1.874-.502.58 0 1.097.108 1.551.323.454.213.821.51 1.099.895a2.7 2.7 0 0 1 .502 1.348h-1.447a1.731 1.731 0 0 0-.547-.925c-.281-.259-.659-.388-1.133-.388-.414 0-.777.11-1.089.328-.308.216-.548.524-.721.925-.172.398-.258.868-.258 1.412 0 .557.084 1.037.253 1.442.169.404.408.717.716.94.312.221.678.332 1.099.332.282 0 .537-.051.766-.154.232-.106.425-.257.581-.452.159-.196.27-.431.333-.706h1.447a2.814 2.814 0 0 1-.482 1.322 2.777 2.777 0 0 1-1.079.915c-.447.222-.973.333-1.576.333Zm4.727-.154v-7.636h1.486V20h-1.486Zm.75-8.815a.946.946 0 0 1-.666-.258.841.841 0 0 1-.273-.627.83.83 0 0 1 .273-.626.936.936 0 0 1 .666-.263.92.92 0 0 1 .662.263.825.825 0 0 1 .278.626c0 .242-.093.451-.278.627a.93.93 0 0 1-.662.258Zm6.027 8.97c-.752 0-1.4-.162-1.944-.483a3.265 3.265 0 0 1-1.252-1.367c-.292-.59-.438-1.281-.438-2.073 0-.783.146-1.472.438-2.069a3.389 3.389 0 0 1 1.232-1.397c.531-.334 1.151-.502 1.86-.502.431 0 .848.072 1.253.214a3.03 3.03 0 0 1 1.088.671c.322.305.575.701.761 1.188.186.484.279 1.073.279 1.765v.527h-6.071v-1.113h4.614c0-.392-.08-.738-.239-1.04a1.805 1.805 0 0 0-.671-.72 1.875 1.875 0 0 0-1.004-.264c-.418 0-.782.103-1.094.308a2.071 2.071 0 0 0-.716.796 2.292 2.292 0 0 0-.248 1.059v.87c0 .51.089.945.268 1.302.182.358.436.632.761.82.324.186.704.28 1.138.28.282 0 .539-.04.771-.12a1.593 1.593 0 0 0 .989-.97l1.407.254a2.557 2.557 0 0 1-.606 1.089 2.951 2.951 0 0 1-1.089.72c-.434.17-.93.254-1.487.254Zm6.412-4.69V20h-1.486v-7.636h1.427v1.242h.094c.176-.404.451-.729.825-.974.378-.245.854-.368 1.427-.368.521 0 .976.11 1.367.328.392.216.695.537.91.965.216.427.323.956.323 1.586V20h-1.486v-4.678c0-.554-.144-.986-.433-1.298-.288-.315-.684-.472-1.188-.472-.345 0-.651.074-.92.224a1.61 1.61 0 0 0-.631.656c-.152.285-.229.63-.229 1.034Zm10.446-3.101v1.193h-4.172v-1.193h4.172Zm-3.053-1.83h1.487v7.224c0 .288.043.505.129.651.086.143.197.24.333.293.139.05.29.075.452.075.12 0 .224-.008.314-.025.089-.016.159-.03.208-.04l.269 1.228a2.497 2.497 0 0 1-.368.1 2.916 2.916 0 0 1-.597.06 2.612 2.612 0 0 1-1.093-.21 1.88 1.88 0 0 1-.821-.675c-.208-.305-.313-.688-.313-1.149v-7.532Zm7.906 9.62c-.752 0-1.4-.16-1.944-.482a3.273 3.273 0 0 1-1.253-1.367c-.291-.59-.437-1.281-.437-2.073 0-.783.146-1.472.437-2.069a3.398 3.398 0 0 1 1.233-1.397c.531-.334 1.15-.502 1.86-.502.431 0 .848.072 1.253.214a3.03 3.03 0 0 1 1.088.671c.322.305.575.701.761 1.188.186.484.278 1.073.278 1.765v.527h-6.07v-1.113h4.614c0-.392-.08-.738-.239-1.04a1.805 1.805 0 0 0-.671-.72 1.875 1.875 0 0 0-1.004-.264c-.418 0-.782.103-1.094.308a2.071 2.071 0 0 0-.716.796 2.293 2.293 0 0 0-.249 1.059v.87c0 .51.09.945.269 1.302.182.358.436.632.761.82.324.186.704.28 1.138.28.282 0 .539-.04.771-.12a1.593 1.593 0 0 0 .989-.97l1.407.254a2.549 2.549 0 0 1-.607 1.089 2.939 2.939 0 0 1-1.088.72c-.435.17-.93.254-1.487.254Z" fill="#364152"/><path d="M39.58 33.136c-.591 0-1.11-.14-1.556-.422a2.867 2.867 0 0 1-1.04-1.18c-.247-.506-.37-1.096-.37-1.773 0-.681.123-1.277.37-1.785a2.86 2.86 0 0 1 1.04-1.185c.446-.281.965-.422 1.556-.422.59 0 1.108.14 1.55.422.447.281.793.676 1.04 1.185.25.508.375 1.104.375 1.785 0 .677-.125 1.267-.375 1.773-.247.506-.593.9-1.04 1.18-.443.282-.96.422-1.55.422Zm0-.903c.448 0 .818-.115 1.108-.345.29-.23.504-.533.643-.908.14-.375.209-.781.209-1.219 0-.437-.07-.845-.209-1.223a2.06 2.06 0 0 0-.644-.916c-.29-.233-.659-.35-1.107-.35-.45 0-.819.117-1.108.35a2.06 2.06 0 0 0-.644.916 3.51 3.51 0 0 0-.209 1.223c0 .438.07.844.21 1.22.138.374.353.677.643.907.29.23.659.345 1.108.345Zm10.518 3.358c-.486 0-.904-.063-1.253-.188a2.66 2.66 0 0 1-.874-.485 2.657 2.657 0 0 1-.55-.64l.802-.562c.09.12.206.256.345.409.139.156.33.291.57.405.245.116.565.175.96.175.528 0 .964-.128 1.308-.384.344-.256.516-.656.516-1.202v-1.33h-.086c-.074.12-.179.268-.315.444a1.79 1.79 0 0 1-.58.464c-.25.134-.588.2-1.014.2a2.731 2.731 0 0 1-1.423-.374 2.63 2.63 0 0 1-.993-1.091c-.242-.477-.362-1.057-.362-1.739 0-.67.118-1.254.353-1.751.236-.5.564-.887.985-1.16.42-.275.906-.413 1.457-.413.426 0 .764.071 1.014.213.253.14.447.299.58.478.136.176.242.32.315.434h.103v-1.04h.971v6.733c0 .563-.128 1.02-.383 1.373a2.185 2.185 0 0 1-1.023.78 3.86 3.86 0 0 1-1.423.25Zm-.034-3.597c.403 0 .744-.092 1.022-.277.279-.184.49-.45.635-.796.145-.347.218-.762.218-1.245 0-.471-.072-.888-.214-1.248a1.874 1.874 0 0 0-.63-.849c-.279-.204-.622-.306-1.031-.306-.427 0-.782.108-1.066.324a1.972 1.972 0 0 0-.635.869 3.36 3.36 0 0 0-.209 1.21c0 .455.071.857.213 1.206.145.347.358.62.64.818.284.196.636.294 1.057.294Zm7.448 1.142c-.63 0-1.174-.139-1.632-.417a2.803 2.803 0 0 1-1.052-1.176c-.245-.506-.367-1.094-.367-1.765 0-.67.123-1.261.367-1.772a2.89 2.89 0 0 1 1.031-1.202c.443-.29.96-.435 1.551-.435.341 0 .678.057 1.01.17.332.114.635.3.908.555.272.253.49.588.652 1.005.162.418.243.932.243 1.543v.426h-5.046v-.87H59.2c0-.369-.074-.698-.222-.988a1.67 1.67 0 0 0-.622-.686 1.743 1.743 0 0 0-.946-.251c-.4 0-.747.1-1.04.298-.29.196-.512.452-.669.767a2.254 2.254 0 0 0-.234 1.014v.58c0 .494.085.913.256 1.257.173.34.413.6.72.78a2.11 2.11 0 0 0 1.07.264c.264 0 .502-.037.715-.11.216-.078.402-.191.559-.342.156-.153.277-.343.362-.57l.971.272c-.102.33-.274.62-.515.87-.242.246-.54.44-.895.579a3.318 3.318 0 0 1-1.198.204Zm8.877-5.216-.904.256a1.68 1.68 0 0 0-.251-.439 1.22 1.22 0 0 0-.443-.358c-.188-.094-.428-.14-.72-.14-.4 0-.735.092-1.002.277-.264.181-.396.413-.396.694 0 .25.09.448.273.593.181.144.466.265.852.362l.971.238c.586.143 1.022.36 1.309.652.287.29.43.664.43 1.121 0 .375-.108.71-.324 1.006a2.148 2.148 0 0 1-.895.699c-.383.17-.83.255-1.338.255-.667 0-1.22-.145-1.657-.434-.438-.29-.715-.713-.831-1.27l.954-.239c.091.352.263.617.516.793.256.176.59.264 1.001.264.47 0 .841-.1 1.117-.298.278-.202.417-.444.417-.725a.762.762 0 0 0-.238-.57c-.16-.157-.404-.273-.733-.35l-1.091-.256c-.6-.142-1.04-.362-1.321-.66-.279-.301-.418-.678-.418-1.13 0-.369.104-.696.311-.98.21-.284.496-.507.857-.669a3.008 3.008 0 0 1 1.236-.243c.647 0 1.156.142 1.525.427.372.284.637.659.793 1.125Zm4.48-1.466v.853h-3.392v-.852h3.392Zm-2.404-1.568h1.006v6.239c0 .284.041.497.123.64a.64.64 0 0 0 .324.28c.134.046.274.069.422.069.111 0 .202-.006.273-.017l.17-.035.205.904a2.046 2.046 0 0 1-.286.077 2.102 2.102 0 0 1-.464.042c-.284 0-.563-.06-.835-.183a1.66 1.66 0 0 1-.674-.558c-.176-.25-.264-.566-.264-.946v-6.512Zm6.505 8.25c-.59 0-1.11-.14-1.555-.422a2.866 2.866 0 0 1-1.04-1.18c-.247-.506-.37-1.096-.37-1.773 0-.681.123-1.277.37-1.785a2.86 2.86 0 0 1 1.04-1.185c.446-.281.964-.422 1.555-.422s1.108.14 1.551.422c.446.281.793.676 1.04 1.185.25.508.375 1.104.375 1.785 0 .677-.125 1.267-.375 1.773-.247.506-.594.9-1.04 1.18-.443.282-.96.422-1.55.422Zm0-.903c.449 0 .818-.115 1.108-.345.29-.23.504-.533.644-.908.139-.375.208-.781.208-1.219 0-.437-.07-.845-.208-1.223a2.06 2.06 0 0 0-.644-.916c-.29-.233-.659-.35-1.108-.35-.449 0-.818.117-1.108.35a2.06 2.06 0 0 0-.643.916c-.14.378-.21.786-.21 1.223 0 .438.07.844.21 1.22.139.374.353.677.643.907.29.23.66.345 1.108.345Zm4.501.767v-6.546h.972v.99h.068c.12-.325.335-.587.648-.79a1.907 1.907 0 0 1 1.057-.302c.073 0 .166.002.277.005.11.002.194.007.251.012v1.023a2.99 2.99 0 0 0-.234-.038c-.12-.02-.246-.03-.38-.03a1.78 1.78 0 0 0-.852.2 1.47 1.47 0 0 0-.801 1.334V33H79.47Z" fill="#6B7280"/></svg>