<svg width="198" height="42" fill="none" xmlns="http://www.w3.org/2000/svg"><rect width="198" height="42" rx="16" fill="#fff"/><path d="M20 11c-5.52 0-10 4.48-10 10s4.48 10 10 10 10-4.48 10-10-4.48-10-10-10Zm0 18c-4.42 0-8-3.58-8-8 0-1.85.63-3.55 1.69-4.9L24.9 27.31A7.902 7.902 0 0 1 20 29Zm6.31-3.1L15.1 14.69A7.902 7.902 0 0 1 20 13c4.42 0 8 3.58 8 8 0 1.85-.63 3.55-1.69 4.9Z" fill="#DF6D51"/><path d="M42.672 18.493a1.453 1.453 0 0 0-.656-1.094c-.385-.262-.869-.393-1.452-.393-.418 0-.779.067-1.084.2-.305.128-.542.308-.71.536a1.268 1.268 0 0 0-.25.77c0 .243.057.451.17.627.116.176.266.323.452.443.189.116.391.213.607.293.215.076.422.14.621.189l.994.258c.325.08.658.188 1 .324.341.136.658.314.95.537.29.222.526.497.705.825.183.328.274.72.274 1.178 0 .577-.15 1.089-.448 1.536-.295.448-.724.8-1.288 1.06-.56.258-1.237.387-2.033.387-.762 0-1.422-.12-1.979-.363-.556-.242-.992-.585-1.307-1.029-.315-.448-.489-.978-.522-1.59h1.541c.03.367.15.674.358.919.212.242.482.422.81.542.332.116.695.174 1.09.174.433 0 .82-.068 1.158-.204.341-.14.61-.331.805-.577.195-.248.293-.538.293-.87 0-.301-.086-.548-.258-.74a1.91 1.91 0 0 0-.691-.478 6.755 6.755 0 0 0-.98-.333l-1.203-.328c-.815-.222-1.461-.549-1.939-.98-.474-.43-.71-1-.71-1.71 0-.586.158-1.098.477-1.536.318-.437.749-.777 1.292-1.02.544-.244 1.157-.367 1.84-.367.69 0 1.297.121 1.824.363.53.242.948.575 1.253 1 .305.42.464.904.477 1.45h-1.481ZM46.009 26v-7.636h1.487V26h-1.487Zm.75-8.815a.945.945 0 0 1-.665-.258.84.84 0 0 1-.274-.627.83.83 0 0 1 .274-.626.935.935 0 0 1 .666-.263c.258 0 .479.087.661.263a.824.824 0 0 1 .278.626c0 .242-.092.451-.278.627a.927.927 0 0 1-.661.258Zm4.223 4.28V26h-1.487v-7.636h1.427v1.242h.095c.175-.404.45-.729.825-.974.378-.245.853-.368 1.427-.368.52 0 .976.11 1.367.328.391.216.694.537.91.965.215.427.323.956.323 1.586V26h-1.486v-4.678c0-.554-.145-.986-.433-1.298-.288-.315-.684-.472-1.188-.472a1.86 1.86 0 0 0-.92.224c-.265.149-.476.367-.631.656-.153.285-.23.63-.23 1.034Zm13.802 4.69c-.716 0-1.34-.165-1.874-.493a3.319 3.319 0 0 1-1.243-1.377c-.295-.59-.442-1.28-.442-2.068 0-.793.147-1.485.442-2.078a3.312 3.312 0 0 1 1.243-1.383c.534-.328 1.158-.492 1.874-.492.716 0 1.34.164 1.875.492.533.328.947.79 1.242 1.383.295.593.443 1.285.443 2.078 0 .788-.148 1.478-.442 2.068a3.319 3.319 0 0 1-1.243 1.377c-.534.328-1.159.492-1.875.492Zm.005-1.249c.464 0 .849-.122 1.154-.368.305-.245.53-.571.676-.98.149-.407.224-.856.224-1.346 0-.488-.075-.935-.224-1.343a2.186 2.186 0 0 0-.676-.989c-.305-.249-.69-.373-1.154-.373-.467 0-.855.124-1.163.373a2.221 2.221 0 0 0-.681.99 3.958 3.958 0 0 0-.219 1.342c0 .49.073.94.219 1.347.149.408.376.734.68.98.31.245.697.367 1.164.367ZM70.003 26v-7.636h1.437v1.213h.08c.139-.411.384-.734.735-.97a2.106 2.106 0 0 1 1.204-.358 6.382 6.382 0 0 1 .63.035v1.422a2.66 2.66 0 0 0-.317-.055 3.037 3.037 0 0 0-.458-.035 1.94 1.94 0 0 0-.94.224 1.663 1.663 0 0 0-.884 1.497V26h-1.487Zm5.373 0v-7.636h1.487V26h-1.487Zm.751-8.815a.945.945 0 0 1-.666-.258.84.84 0 0 1-.274-.627.83.83 0 0 1 .274-.626.935.935 0 0 1 .666-.263c.258 0 .479.087.661.263a.824.824 0 0 1 .279.626c0 .242-.093.451-.279.627a.927.927 0 0 1-.661.258Zm5.937 11.838c-.606 0-1.128-.08-1.566-.239-.434-.159-.789-.37-1.064-.631a2.65 2.65 0 0 1-.616-.86l1.278-.527c.089.146.208.3.358.462.152.166.357.307.616.423.262.116.598.174 1.01.174.563 0 1.028-.138 1.396-.413.368-.272.552-.706.552-1.303v-1.501h-.094c-.09.162-.22.343-.388.542a2.097 2.097 0 0 1-.686.517c-.292.146-.671.219-1.139.219-.603 0-1.147-.141-1.63-.423-.481-.285-.862-.704-1.144-1.258-.278-.557-.418-1.241-.418-2.053 0-.812.138-1.508.413-2.088.279-.58.66-1.024 1.144-1.332a2.974 2.974 0 0 1 1.645-.468c.474 0 .857.08 1.149.239.291.156.518.338.68.547.166.209.294.392.383.552h.11v-1.238h1.457v7.805c0 .656-.153 1.195-.458 1.616-.305.42-.717.732-1.238.934-.517.203-1.1.304-1.75.304Zm-.015-4.37c.428 0 .79-.1 1.084-.299.299-.202.524-.49.676-.865.156-.378.234-.83.234-1.357 0-.514-.076-.966-.229-1.357-.152-.391-.376-.696-.67-.915-.296-.222-.66-.333-1.095-.333-.447 0-.82.116-1.118.348-.299.229-.524.54-.676.935-.15.394-.224.835-.224 1.322 0 .5.076.94.229 1.318.152.377.377.672.676.884.301.213.672.319 1.113.319Zm8.745 1.501c-.752 0-1.4-.16-1.944-.482a3.271 3.271 0 0 1-1.252-1.367c-.292-.59-.438-1.281-.438-2.073 0-.783.146-1.472.438-2.069a3.397 3.397 0 0 1 1.233-1.397c.53-.334 1.15-.502 1.859-.502.43 0 .849.072 1.253.214.404.142.767.366 1.089.671.321.305.575.701.76 1.188.186.484.279 1.073.279 1.765v.527H88v-1.113h4.613c0-.391-.08-.738-.239-1.04a1.804 1.804 0 0 0-.67-.72 1.875 1.875 0 0 0-1.005-.264 1.94 1.94 0 0 0-1.094.308 2.068 2.068 0 0 0-.716.796 2.296 2.296 0 0 0-.248 1.059v.87c0 .51.09.945.268 1.302.182.358.436.632.76.82.326.186.705.28 1.14.28.281 0 .538-.04.77-.12a1.597 1.597 0 0 0 .99-.97l1.406.254a2.549 2.549 0 0 1-.606 1.089 2.941 2.941 0 0 1-1.09.72c-.433.17-.929.254-1.486.254Zm6.413-4.688V26H95.72v-7.636h1.427v1.242h.094c.176-.404.451-.729.826-.974.377-.245.853-.368 1.426-.368.521 0 .977.11 1.368.328.391.216.694.537.909.965.216.427.324.956.324 1.586V26h-1.487v-4.678c0-.554-.144-.986-.432-1.298-.289-.315-.685-.472-1.189-.472a1.86 1.86 0 0 0-.92.224c-.265.149-.475.367-.63.656-.153.285-.23.63-.23 1.034Z" fill="#364152"/></svg>